<svg width="306" height="64" viewBox="0 0 306 64" fill="none" xmlns="http://www.w3.org/2000/svg">
<g clip-path="url(#clip0_1557_1268)">
<path d="M49.014 9.83486L48.9189 9.86581L48.9498 9.9609L51.0332 16.3609L51.0641 16.456L51.1592 16.425L53.1878 15.7651L53.2829 15.7342L53.252 15.6391L51.1687 9.23858L51.1377 9.14349L51.0426 9.17444L49.014 9.83486Z" fill="black" stroke="black" stroke-width="0.2"/>
<path d="M45.887 17.3026L45.7919 17.3336L45.8229 17.4287L47.9067 23.8287L47.9377 23.9238L48.0328 23.8928L50.0614 23.2319L50.1565 23.2009L50.1256 23.1058L48.0417 16.7063L48.0107 16.6113L47.9157 16.6422L45.887 17.3026Z" fill="black" stroke="black" stroke-width="0.2"/>
<mask id="path-3-outside-1_1557_1268" maskUnits="userSpaceOnUse" x="5.74414" y="-1" width="55" height="66" fill="black">
<rect fill="white" x="5.74414" y="-1" width="55" height="66"/>
<path d="M9.95039 20.5089C9.72539 22.1386 10.2009 23.7875 11.2603 25.0464L12.8004 26.9781V44.8H14.9337V28.6604L16.4749 29.6875C16.8337 29.9266 17.3004 29.9266 17.6592 29.6875L20.267 27.9469L22.8749 29.6854C23.2337 29.9245 23.7004 29.9245 24.0592 29.6854L26.667 27.9469L29.2748 29.6854C29.6337 29.9245 30.1004 29.9245 30.4592 29.6854L33.067 27.9469L35.6748 29.6854C36.0337 29.9245 36.5004 29.9245 36.8592 29.6854L39.467 27.9469L41.6004 29.3688V61.8666H18.1337V64H48.0004C50.9446 63.9963 53.33 61.6109 53.3337 58.6666V26.6667C53.3311 26.4323 53.2503 26.2052 53.1045 26.0214L59.2686 9.61096C60.0983 7.40627 59.7946 4.93544 58.4561 2.99742C57.1842 1.11722 55.0602 -0.0067404 52.791 3.04179e-05C49.8983 0.0271137 47.3217 1.8344 46.3118 4.54534L44.6394 8.99742L42.667 7.02502V3.20003C42.667 2.61097 42.1894 2.13336 41.6004 2.13336H29.867C29.278 2.13336 28.8004 2.61097 28.8004 3.20003V5.03023C27.5946 3.93753 25.7759 3.87555 24.4983 4.8844V3.20003C24.4983 1.4542 23.0832 0.038572 21.3368 0.038572C19.591 0.038572 18.1754 1.4542 18.1754 3.20003V4.88544C17.5915 4.40159 16.8566 4.13701 16.0983 4.13857C15.2181 4.13649 14.3743 4.49169 13.7603 5.12346C12.4952 6.42711 12.4874 8.49794 13.7421 9.81148L14.7353 10.8365C14.3738 11.0021 14.0457 11.2323 13.7671 11.5156L13.7603 11.5198L13.7499 11.5307C13.5014 11.786 13.2957 12.0797 13.1415 12.4011L11.9259 10.1558L10.0493 11.1714L12.8077 16.2625C12.6842 16.3328 12.5603 16.4011 12.4431 16.4813C12.3993 16.511 12.3608 16.5453 12.3181 16.575L8.19049 12.7714L6.74414 14.3401L10.8441 18.1203C10.3733 18.8406 10.0681 19.6563 9.95039 20.5089ZM32.4748 25.7792L29.867 27.5198L27.2592 25.7813C26.9004 25.5422 26.4337 25.5422 26.0749 25.7813L23.4915 27.5042C23.4853 27.3974 23.467 27.3047 23.467 27.2021C23.4603 24.8578 25.1525 22.8531 27.4644 22.4667C29.7769 22.0797 32.029 23.4245 32.7853 25.6438C32.6754 25.6724 32.5707 25.7177 32.4748 25.7792ZM35.2004 26.8073L35.1801 26.7938C35.0519 24.5516 33.8441 22.5109 31.9399 21.3198C30.0363 20.1287 27.6728 19.9349 25.6004 20.8V13.8667H35.2004V26.8073ZM51.2003 58.6666C51.2003 60.4338 49.7675 61.8666 48.0004 61.8666H43.7337V29.3708L45.867 27.9469L48.4748 29.6854C48.8337 29.9245 49.3004 29.9245 49.6592 29.6854L51.2003 28.6604V58.6666ZM48.3087 5.29482C49.004 3.41461 50.7863 2.15784 52.791 2.13336C54.3587 2.13024 55.8248 2.90784 56.7024 4.2068C57.6441 5.57086 57.8566 7.30992 57.2717 8.86096L50.667 26.4531L49.067 27.5198L46.4592 25.7813C46.1004 25.5422 45.6337 25.5422 45.2748 25.7813L42.667 27.5198L40.503 26.0771L48.3087 5.29482ZM43.816 11.1906L38.155 26.2594L37.3337 26.8073V13.2417L41.6004 8.97502L43.816 11.1906ZM30.9337 4.26669H40.5337V6.40003H30.9337V4.26669ZM30.3087 8.53336H39.0254L35.8254 11.7334H27.1087L30.3087 8.53336ZM15.2827 6.61982C15.4967 6.39898 15.791 6.27398 16.0983 6.27398C16.4061 6.2745 16.7004 6.39898 16.9144 6.61982L18.4806 8.21982C18.7848 8.53023 19.2467 8.6245 19.6483 8.4594C20.0499 8.29377 20.3113 7.90107 20.3087 7.46669V3.20003C20.2915 2.82138 20.4837 2.46409 20.8087 2.26982C21.1342 2.07503 21.54 2.07503 21.865 2.26982C22.1905 2.46409 22.3827 2.82138 22.365 3.20003V7.46669C22.3655 7.8995 22.6275 8.28909 23.0285 8.45263C23.429 8.61669 23.8889 8.5219 24.1926 8.21357L25.7634 6.61357C26.2134 6.17034 26.9353 6.17034 27.3847 6.61357C27.8483 7.08805 27.8483 7.84534 27.3847 8.31982L24.2426 11.5198L24.2743 11.5521L23.7795 12.0469C23.6936 12.1354 23.6243 12.2386 23.5738 12.3511C23.5587 12.3839 23.5504 12.4172 23.5384 12.4511C23.5066 12.5422 23.4874 12.637 23.4811 12.7328C23.4811 12.7563 23.4681 12.7755 23.4681 12.799V22.2078C23.2254 22.4401 22.9999 22.6896 22.7941 22.9547L20.779 18.6667C20.0353 17.187 18.691 16.0985 17.0884 15.6802C16.7155 15.5839 16.3332 15.5255 15.9483 15.5073L15.6749 15.187C15.4618 14.9427 15.3009 14.7521 15.2749 14.7255C14.9993 14.437 14.8801 14.0328 14.9551 13.6406C14.9947 13.4177 15.0973 13.2115 15.2504 13.0453L15.2697 13.0271L15.2962 12.9985C15.6827 12.6198 16.2811 12.5641 16.7311 12.8641C17.1837 13.1667 17.791 13.0797 18.141 12.663C18.491 12.2459 18.4707 11.6328 18.0941 11.2396L15.2749 8.32971C14.817 7.85054 14.8207 7.09482 15.2827 6.61982ZM12.0644 20.8C12.2035 19.7662 12.7759 18.8401 13.6389 18.2537C14.4947 17.675 15.5577 17.4917 16.5582 17.7505C17.5582 18.0099 18.3988 18.6865 18.8655 19.6083L21.5842 25.3995C21.517 25.649 21.4639 25.9021 21.4254 26.1578L20.8634 25.7823C20.5051 25.5432 20.0379 25.5432 19.6795 25.7823L17.067 27.5198L14.7014 25.9412L14.4728 25.6547L17.2228 23.5287L15.917 21.8412L13.1441 23.9859L12.9072 23.6906C12.2285 22.8906 11.9223 21.8396 12.0644 20.8Z"/>
</mask>
<path d="M9.95039 20.5089C9.72539 22.1386 10.2009 23.7875 11.2603 25.0464L12.8004 26.9781V44.8H14.9337V28.6604L16.4749 29.6875C16.8337 29.9266 17.3004 29.9266 17.6592 29.6875L20.267 27.9469L22.8749 29.6854C23.2337 29.9245 23.7004 29.9245 24.0592 29.6854L26.667 27.9469L29.2748 29.6854C29.6337 29.9245 30.1004 29.9245 30.4592 29.6854L33.067 27.9469L35.6748 29.6854C36.0337 29.9245 36.5004 29.9245 36.8592 29.6854L39.467 27.9469L41.6004 29.3688V61.8666H18.1337V64H48.0004C50.9446 63.9963 53.33 61.6109 53.3337 58.6666V26.6667C53.3311 26.4323 53.2503 26.2052 53.1045 26.0214L59.2686 9.61096C60.0983 7.40627 59.7946 4.93544 58.4561 2.99742C57.1842 1.11722 55.0602 -0.0067404 52.791 3.04179e-05C49.8983 0.0271137 47.3217 1.8344 46.3118 4.54534L44.6394 8.99742L42.667 7.02502V3.20003C42.667 2.61097 42.1894 2.13336 41.6004 2.13336H29.867C29.278 2.13336 28.8004 2.61097 28.8004 3.20003V5.03023C27.5946 3.93753 25.7759 3.87555 24.4983 4.8844V3.20003C24.4983 1.4542 23.0832 0.038572 21.3368 0.038572C19.591 0.038572 18.1754 1.4542 18.1754 3.20003V4.88544C17.5915 4.40159 16.8566 4.13701 16.0983 4.13857C15.2181 4.13649 14.3743 4.49169 13.7603 5.12346C12.4952 6.42711 12.4874 8.49794 13.7421 9.81148L14.7353 10.8365C14.3738 11.0021 14.0457 11.2323 13.7671 11.5156L13.7603 11.5198L13.7499 11.5307C13.5014 11.786 13.2957 12.0797 13.1415 12.4011L11.9259 10.1558L10.0493 11.1714L12.8077 16.2625C12.6842 16.3328 12.5603 16.4011 12.4431 16.4813C12.3993 16.511 12.3608 16.5453 12.3181 16.575L8.19049 12.7714L6.74414 14.3401L10.8441 18.1203C10.3733 18.8406 10.0681 19.6563 9.95039 20.5089ZM32.4748 25.7792L29.867 27.5198L27.2592 25.7813C26.9004 25.5422 26.4337 25.5422 26.0749 25.7813L23.4915 27.5042C23.4853 27.3974 23.467 27.3047 23.467 27.2021C23.4603 24.8578 25.1525 22.8531 27.4644 22.4667C29.7769 22.0797 32.029 23.4245 32.7853 25.6438C32.6754 25.6724 32.5707 25.7177 32.4748 25.7792ZM35.2004 26.8073L35.1801 26.7938C35.0519 24.5516 33.8441 22.5109 31.9399 21.3198C30.0363 20.1287 27.6728 19.9349 25.6004 20.8V13.8667H35.2004V26.8073ZM51.2003 58.6666C51.2003 60.4338 49.7675 61.8666 48.0004 61.8666H43.7337V29.3708L45.867 27.9469L48.4748 29.6854C48.8337 29.9245 49.3004 29.9245 49.6592 29.6854L51.2003 28.6604V58.6666ZM48.3087 5.29482C49.004 3.41461 50.7863 2.15784 52.791 2.13336C54.3587 2.13024 55.8248 2.90784 56.7024 4.2068C57.6441 5.57086 57.8566 7.30992 57.2717 8.86096L50.667 26.4531L49.067 27.5198L46.4592 25.7813C46.1004 25.5422 45.6337 25.5422 45.2748 25.7813L42.667 27.5198L40.503 26.0771L48.3087 5.29482ZM43.816 11.1906L38.155 26.2594L37.3337 26.8073V13.2417L41.6004 8.97502L43.816 11.1906ZM30.9337 4.26669H40.5337V6.40003H30.9337V4.26669ZM30.3087 8.53336H39.0254L35.8254 11.7334H27.1087L30.3087 8.53336ZM15.2827 6.61982C15.4967 6.39898 15.791 6.27398 16.0983 6.27398C16.4061 6.2745 16.7004 6.39898 16.9144 6.61982L18.4806 8.21982C18.7848 8.53023 19.2467 8.6245 19.6483 8.4594C20.0499 8.29377 20.3113 7.90107 20.3087 7.46669V3.20003C20.2915 2.82138 20.4837 2.46409 20.8087 2.26982C21.1342 2.07503 21.54 2.07503 21.865 2.26982C22.1905 2.46409 22.3827 2.82138 22.365 3.20003V7.46669C22.3655 7.8995 22.6275 8.28909 23.0285 8.45263C23.429 8.61669 23.8889 8.5219 24.1926 8.21357L25.7634 6.61357C26.2134 6.17034 26.9353 6.17034 27.3847 6.61357C27.8483 7.08805 27.8483 7.84534 27.3847 8.31982L24.2426 11.5198L24.2743 11.5521L23.7795 12.0469C23.6936 12.1354 23.6243 12.2386 23.5738 12.3511C23.5587 12.3839 23.5504 12.4172 23.5384 12.4511C23.5066 12.5422 23.4874 12.637 23.4811 12.7328C23.4811 12.7563 23.4681 12.7755 23.4681 12.799V22.2078C23.2254 22.4401 22.9999 22.6896 22.7941 22.9547L20.779 18.6667C20.0353 17.187 18.691 16.0985 17.0884 15.6802C16.7155 15.5839 16.3332 15.5255 15.9483 15.5073L15.6749 15.187C15.4618 14.9427 15.3009 14.7521 15.2749 14.7255C14.9993 14.437 14.8801 14.0328 14.9551 13.6406C14.9947 13.4177 15.0973 13.2115 15.2504 13.0453L15.2697 13.0271L15.2962 12.9985C15.6827 12.6198 16.2811 12.5641 16.7311 12.8641C17.1837 13.1667 17.791 13.0797 18.141 12.663C18.491 12.2459 18.4707 11.6328 18.0941 11.2396L15.2749 8.32971C14.817 7.85054 14.8207 7.09482 15.2827 6.61982ZM12.0644 20.8C12.2035 19.7662 12.7759 18.8401 13.6389 18.2537C14.4947 17.675 15.5577 17.4917 16.5582 17.7505C17.5582 18.0099 18.3988 18.6865 18.8655 19.6083L21.5842 25.3995C21.517 25.649 21.4639 25.9021 21.4254 26.1578L20.8634 25.7823C20.5051 25.5432 20.0379 25.5432 19.6795 25.7823L17.067 27.5198L14.7014 25.9412L14.4728 25.6547L17.2228 23.5287L15.917 21.8412L13.1441 23.9859L12.9072 23.6906C12.2285 22.8906 11.9223 21.8396 12.0644 20.8Z" fill="black"/>
<path d="M9.95039 20.5089C9.72539 22.1386 10.2009 23.7875 11.2603 25.0464L12.8004 26.9781V44.8H14.9337V28.6604L16.4749 29.6875C16.8337 29.9266 17.3004 29.9266 17.6592 29.6875L20.267 27.9469L22.8749 29.6854C23.2337 29.9245 23.7004 29.9245 24.0592 29.6854L26.667 27.9469L29.2748 29.6854C29.6337 29.9245 30.1004 29.9245 30.4592 29.6854L33.067 27.9469L35.6748 29.6854C36.0337 29.9245 36.5004 29.9245 36.8592 29.6854L39.467 27.9469L41.6004 29.3688V61.8666H18.1337V64H48.0004C50.9446 63.9963 53.33 61.6109 53.3337 58.6666V26.6667C53.3311 26.4323 53.2503 26.2052 53.1045 26.0214L59.2686 9.61096C60.0983 7.40627 59.7946 4.93544 58.4561 2.99742C57.1842 1.11722 55.0602 -0.0067404 52.791 3.04179e-05C49.8983 0.0271137 47.3217 1.8344 46.3118 4.54534L44.6394 8.99742L42.667 7.02502V3.20003C42.667 2.61097 42.1894 2.13336 41.6004 2.13336H29.867C29.278 2.13336 28.8004 2.61097 28.8004 3.20003V5.03023C27.5946 3.93753 25.7759 3.87555 24.4983 4.8844V3.20003C24.4983 1.4542 23.0832 0.038572 21.3368 0.038572C19.591 0.038572 18.1754 1.4542 18.1754 3.20003V4.88544C17.5915 4.40159 16.8566 4.13701 16.0983 4.13857C15.2181 4.13649 14.3743 4.49169 13.7603 5.12346C12.4952 6.42711 12.4874 8.49794 13.7421 9.81148L14.7353 10.8365C14.3738 11.0021 14.0457 11.2323 13.7671 11.5156L13.7603 11.5198L13.7499 11.5307C13.5014 11.786 13.2957 12.0797 13.1415 12.4011L11.9259 10.1558L10.0493 11.1714L12.8077 16.2625C12.6842 16.3328 12.5603 16.4011 12.4431 16.4813C12.3993 16.511 12.3608 16.5453 12.3181 16.575L8.19049 12.7714L6.74414 14.3401L10.8441 18.1203C10.3733 18.8406 10.0681 19.6563 9.95039 20.5089ZM32.4748 25.7792L29.867 27.5198L27.2592 25.7813C26.9004 25.5422 26.4337 25.5422 26.0749 25.7813L23.4915 27.5042C23.4853 27.3974 23.467 27.3047 23.467 27.2021C23.4603 24.8578 25.1525 22.8531 27.4644 22.4667C29.7769 22.0797 32.029 23.4245 32.7853 25.6438C32.6754 25.6724 32.5707 25.7177 32.4748 25.7792ZM35.2004 26.8073L35.1801 26.7938C35.0519 24.5516 33.8441 22.5109 31.9399 21.3198C30.0363 20.1287 27.6728 19.9349 25.6004 20.8V13.8667H35.2004V26.8073ZM51.2003 58.6666C51.2003 60.4338 49.7675 61.8666 48.0004 61.8666H43.7337V29.3708L45.867 27.9469L48.4748 29.6854C48.8337 29.9245 49.3004 29.9245 49.6592 29.6854L51.2003 28.6604V58.6666ZM48.3087 5.29482C49.004 3.41461 50.7863 2.15784 52.791 2.13336C54.3587 2.13024 55.8248 2.90784 56.7024 4.2068C57.6441 5.57086 57.8566 7.30992 57.2717 8.86096L50.667 26.4531L49.067 27.5198L46.4592 25.7813C46.1004 25.5422 45.6337 25.5422 45.2748 25.7813L42.667 27.5198L40.503 26.0771L48.3087 5.29482ZM43.816 11.1906L38.155 26.2594L37.3337 26.8073V13.2417L41.6004 8.97502L43.816 11.1906ZM30.9337 4.26669H40.5337V6.40003H30.9337V4.26669ZM30.3087 8.53336H39.0254L35.8254 11.7334H27.1087L30.3087 8.53336ZM15.2827 6.61982C15.4967 6.39898 15.791 6.27398 16.0983 6.27398C16.4061 6.2745 16.7004 6.39898 16.9144 6.61982L18.4806 8.21982C18.7848 8.53023 19.2467 8.6245 19.6483 8.4594C20.0499 8.29377 20.3113 7.90107 20.3087 7.46669V3.20003C20.2915 2.82138 20.4837 2.46409 20.8087 2.26982C21.1342 2.07503 21.54 2.07503 21.865 2.26982C22.1905 2.46409 22.3827 2.82138 22.365 3.20003V7.46669C22.3655 7.8995 22.6275 8.28909 23.0285 8.45263C23.429 8.61669 23.8889 8.5219 24.1926 8.21357L25.7634 6.61357C26.2134 6.17034 26.9353 6.17034 27.3847 6.61357C27.8483 7.08805 27.8483 7.84534 27.3847 8.31982L24.2426 11.5198L24.2743 11.5521L23.7795 12.0469C23.6936 12.1354 23.6243 12.2386 23.5738 12.3511C23.5587 12.3839 23.5504 12.4172 23.5384 12.4511C23.5066 12.5422 23.4874 12.637 23.4811 12.7328C23.4811 12.7563 23.4681 12.7755 23.4681 12.799V22.2078C23.2254 22.4401 22.9999 22.6896 22.7941 22.9547L20.779 18.6667C20.0353 17.187 18.691 16.0985 17.0884 15.6802C16.7155 15.5839 16.3332 15.5255 15.9483 15.5073L15.6749 15.187C15.4618 14.9427 15.3009 14.7521 15.2749 14.7255C14.9993 14.437 14.8801 14.0328 14.9551 13.6406C14.9947 13.4177 15.0973 13.2115 15.2504 13.0453L15.2697 13.0271L15.2962 12.9985C15.6827 12.6198 16.2811 12.5641 16.7311 12.8641C17.1837 13.1667 17.791 13.0797 18.141 12.663C18.491 12.2459 18.4707 11.6328 18.0941 11.2396L15.2749 8.32971C14.817 7.85054 14.8207 7.09482 15.2827 6.61982ZM12.0644 20.8C12.2035 19.7662 12.7759 18.8401 13.6389 18.2537C14.4947 17.675 15.5577 17.4917 16.5582 17.7505C17.5582 18.0099 18.3988 18.6865 18.8655 19.6083L21.5842 25.3995C21.517 25.649 21.4639 25.9021 21.4254 26.1578L20.8634 25.7823C20.5051 25.5432 20.0379 25.5432 19.6795 25.7823L17.067 27.5198L14.7014 25.9412L14.4728 25.6547L17.2228 23.5287L15.917 21.8412L13.1441 23.9859L12.9072 23.6906C12.2285 22.8906 11.9223 21.8396 12.0644 20.8Z" stroke="black" stroke-width="0.4" mask="url(#path-3-outside-1_1557_1268)"/>
<path d="M10.7667 47.609C11.6273 47.1044 12.6075 46.8367 13.607 46.8337L13.6074 46.8337C16.75 46.8374 19.2963 49.3836 19.3 52.5262V52.5265C19.2958 55.3419 18.6401 58.1181 17.3843 60.6381L17.0125 61.3843L10.7667 47.609ZM10.7667 47.609V46.9337C10.7667 44.5222 8.81147 42.567 6.39999 42.567H6.29999V42.667V44.8003V44.9003H6.39999C7.52289 44.9003 8.43332 45.8108 8.43332 46.9337V47.609C7.57268 47.1044 6.5925 46.8367 5.593 46.8337L5.59259 46.8337C2.44995 46.8374 -0.096289 49.3836 -0.1 52.5262L-0.0999999 52.5265C-0.096334 55.3424 0.559343 58.1196 1.81571 60.6402L1.81578 60.6404L2.18801 61.3843C2.18804 61.3843 2.18807 61.3844 2.18809 61.3845C3.01548 63.0534 4.7201 64.1067 6.58263 64.1003M10.7667 47.609L17.0124 61.3845C16.1845 63.0534 14.4804 64.1067 12.6174 64.1003M6.58263 64.1003C6.58256 64.1003 6.58249 64.1003 6.58242 64.1003L6.58229 64.0003L6.58263 64.1003ZM6.58263 64.1003C7.34539 64.0992 8.09697 63.9216 8.77944 63.582L8.77963 63.5819L9.60002 63.1715M9.60002 63.1715L10.4214 63.5819L10.4216 63.582C11.1035 63.9216 11.8551 64.0992 12.6174 64.1003M9.60002 63.1715L9.55529 63.1491L9.59999 63.0597L9.64473 63.1491L9.60002 63.1715ZM12.6174 64.1003C12.6174 64.1003 12.6175 64.1003 12.6176 64.1003L12.6177 64.0003L12.6174 64.1003ZM7.96782 50.1512L7.96762 50.151C7.33905 49.5189 6.48395 49.1645 5.59299 49.167L5.5927 49.067L5.59284 49.167C3.73863 49.1695 2.23593 50.6722 2.23333 52.5264C2.23646 54.9796 2.80786 57.3987 3.90302 59.5942L3.90304 59.5942L4.27492 60.3406L4.275 60.3408C4.70963 61.217 5.60446 61.77 6.58198 61.767L6.58216 61.767C6.9828 61.7665 7.37793 61.6732 7.73648 61.4947L7.96782 50.1512ZM7.96782 50.1512L8.77511 50.9585L8.77516 50.9586C9.23087 51.4137 9.96911 51.4137 10.4248 50.9586L10.4249 50.9585L11.2322 50.1512C12.1931 49.1902 13.6376 48.903 14.893 49.4229C16.1483 49.9428 16.9666 51.1678 16.9667 52.5262C16.9641 54.9806 16.3927 57.4007 15.297 59.5973L15.2969 59.5974L14.9251 60.3443C14.4894 61.219 13.5951 61.7705 12.6181 61.767L12.6178 61.767C12.2177 61.7665 11.823 61.6732 11.4644 61.4946L10.1218 60.8228L10.1217 60.8228C9.79312 60.6588 9.40688 60.6587 9.07871 60.8228L9.07867 60.8229L7.73667 61.4946L7.96782 50.1512Z" fill="black" stroke="black" stroke-width="0.2"/>
</g>
<path d="M82.7188 53.3203V55.0078H76.7344V53.3203H82.7188ZM77.3203 48.625V60H75.1719V48.625H77.3203ZM84.3125 48.625V60H82.1641V48.625H84.3125ZM91 58.2031V54.3047C91 54.0182 90.9505 53.7708 90.8516 53.5625C90.7526 53.3542 90.6016 53.1927 90.3984 53.0781C90.1953 52.9635 89.9375 52.9062 89.625 52.9062C89.349 52.9062 89.1068 52.9531 88.8984 53.0469C88.6953 53.1406 88.5391 53.2734 88.4297 53.4453C88.3203 53.612 88.2656 53.8047 88.2656 54.0234H86.1953C86.1953 53.6745 86.2786 53.3438 86.4453 53.0312C86.612 52.7135 86.849 52.4323 87.1562 52.1875C87.4688 51.9375 87.8411 51.7422 88.2734 51.6016C88.7109 51.4609 89.2005 51.3906 89.7422 51.3906C90.3828 51.3906 90.9531 51.5 91.4531 51.7188C91.9583 51.9323 92.3542 52.2552 92.6406 52.6875C92.9323 53.1198 93.0781 53.6641 93.0781 54.3203V58.0078C93.0781 58.4297 93.1042 58.7917 93.1562 59.0938C93.2135 59.3906 93.2969 59.6484 93.4062 59.8672V60H91.3047C91.2057 59.7865 91.1302 59.5156 91.0781 59.1875C91.026 58.8542 91 58.526 91 58.2031ZM91.2891 54.8516L91.3047 56.0781H90C89.6771 56.0781 89.3932 56.112 89.1484 56.1797C88.9036 56.2422 88.7031 56.3359 88.5469 56.4609C88.3906 56.5807 88.2734 56.7266 88.1953 56.8984C88.1172 57.0651 88.0781 57.2552 88.0781 57.4688C88.0781 57.6771 88.125 57.8646 88.2188 58.0312C88.3177 58.1979 88.4583 58.3307 88.6406 58.4297C88.8281 58.5234 89.0469 58.5703 89.2969 58.5703C89.6615 58.5703 89.9792 58.4974 90.25 58.3516C90.5208 58.2005 90.7318 58.0182 90.8828 57.8047C91.0339 57.5911 91.1146 57.388 91.125 57.1953L91.7188 58.0859C91.6458 58.2995 91.5365 58.526 91.3906 58.7656C91.2448 59.0052 91.0573 59.2292 90.8281 59.4375C90.599 59.6458 90.3229 59.8177 90 59.9531C89.6771 60.0885 89.3021 60.1562 88.875 60.1562C88.3281 60.1562 87.8385 60.0469 87.4062 59.8281C86.974 59.6094 86.6328 59.3099 86.3828 58.9297C86.1328 58.5495 86.0078 58.1172 86.0078 57.6328C86.0078 57.1849 86.0911 56.7891 86.2578 56.4453C86.4245 56.1016 86.6719 55.8125 87 55.5781C87.3281 55.3385 87.7344 55.1589 88.2188 55.0391C88.7083 54.9141 89.2682 54.8516 89.8984 54.8516H91.2891ZM97.6172 58.4375L99.5859 51.5469H101.742L98.8438 60H97.5312L97.6172 58.4375ZM96.1797 51.5469L98.1719 58.4531L98.2422 60H96.9219L94.0156 51.5469H96.1797ZM105.016 51.5469V60H102.945V51.5469H105.016ZM102.805 49.3359C102.805 49.0286 102.909 48.7734 103.117 48.5703C103.331 48.3672 103.617 48.2656 103.977 48.2656C104.336 48.2656 104.62 48.3672 104.828 48.5703C105.042 48.7734 105.148 49.0286 105.148 49.3359C105.148 49.638 105.042 49.8906 104.828 50.0938C104.62 50.2969 104.336 50.3984 103.977 50.3984C103.617 50.3984 103.331 50.2969 103.117 50.0938C102.909 49.8906 102.805 49.638 102.805 49.3359ZM109.008 53.3516V60H106.945V51.5469H108.883L109.008 53.3516ZM108.68 55.4688H108.07C108.076 54.8542 108.159 54.2969 108.32 53.7969C108.482 53.2969 108.708 52.8672 109 52.5078C109.297 52.1484 109.648 51.8724 110.055 51.6797C110.461 51.487 110.914 51.3906 111.414 51.3906C111.82 51.3906 112.188 51.4479 112.516 51.5625C112.844 51.6771 113.125 51.8594 113.359 52.1094C113.599 52.3594 113.781 52.6875 113.906 53.0938C114.036 53.4948 114.102 53.9896 114.102 54.5781V60H112.023V54.5625C112.023 54.1771 111.966 53.8724 111.852 53.6484C111.742 53.4245 111.581 53.2656 111.367 53.1719C111.159 53.0781 110.901 53.0312 110.594 53.0312C110.276 53.0312 109.997 53.0964 109.758 53.2266C109.523 53.3516 109.326 53.526 109.164 53.75C109.008 53.974 108.888 54.2318 108.805 54.5234C108.721 54.8151 108.68 55.1302 108.68 55.4688ZM121.297 51.5469H123.172V59.7422C123.172 60.5078 123.005 61.1562 122.672 61.6875C122.344 62.224 121.883 62.6302 121.289 62.9062C120.695 63.1875 120.005 63.3281 119.219 63.3281C118.88 63.3281 118.513 63.2812 118.117 63.1875C117.727 63.0938 117.349 62.9453 116.984 62.7422C116.625 62.5443 116.326 62.2865 116.086 61.9688L117.016 60.75C117.297 61.0781 117.615 61.3255 117.969 61.4922C118.323 61.6641 118.706 61.75 119.117 61.75C119.534 61.75 119.888 61.6719 120.18 61.5156C120.477 61.3646 120.703 61.1406 120.859 60.8438C121.021 60.5521 121.102 60.1927 121.102 59.7656V53.4766L121.297 51.5469ZM115.586 55.875V55.7109C115.586 55.0651 115.664 54.4792 115.82 53.9531C115.977 53.4219 116.201 52.9661 116.492 52.5859C116.789 52.2057 117.146 51.9115 117.562 51.7031C117.984 51.4948 118.458 51.3906 118.984 51.3906C119.542 51.3906 120.01 51.4922 120.391 51.6953C120.776 51.8984 121.094 52.1875 121.344 52.5625C121.599 52.9375 121.797 53.3828 121.938 53.8984C122.083 54.4089 122.195 54.9714 122.273 55.5859V56.0312C122.201 56.6302 122.083 57.1797 121.922 57.6797C121.766 58.1797 121.557 58.6172 121.297 58.9922C121.036 59.362 120.714 59.6484 120.328 59.8516C119.943 60.0547 119.49 60.1562 118.969 60.1562C118.448 60.1562 117.979 60.0495 117.562 59.8359C117.146 59.6224 116.789 59.3229 116.492 58.9375C116.201 58.5521 115.977 58.099 115.82 57.5781C115.664 57.0573 115.586 56.4896 115.586 55.875ZM117.648 55.7109V55.875C117.648 56.2396 117.685 56.5807 117.758 56.8984C117.831 57.2161 117.943 57.4974 118.094 57.7422C118.245 57.9818 118.435 58.1693 118.664 58.3047C118.893 58.4401 119.167 58.5078 119.484 58.5078C119.911 58.5078 120.26 58.4193 120.531 58.2422C120.807 58.0599 121.016 57.8125 121.156 57.5C121.302 57.1823 121.396 56.8255 121.438 56.4297V55.2031C121.411 54.8906 121.354 54.6016 121.266 54.3359C121.182 54.0703 121.065 53.8411 120.914 53.6484C120.763 53.4557 120.57 53.3047 120.336 53.1953C120.102 53.0859 119.823 53.0312 119.5 53.0312C119.188 53.0312 118.914 53.1016 118.68 53.2422C118.445 53.3776 118.253 53.5677 118.102 53.8125C117.951 54.0573 117.836 54.3411 117.758 54.6641C117.685 54.987 117.648 55.3359 117.648 55.7109ZM133.016 51.5469V53.0312H128.172V51.5469H133.016ZM129.469 49.4688H131.539V57.5625C131.539 57.8125 131.573 58.0052 131.641 58.1406C131.708 58.276 131.81 58.3672 131.945 58.4141C132.081 58.4609 132.242 58.4844 132.43 58.4844C132.565 58.4844 132.69 58.4766 132.805 58.4609C132.919 58.4453 133.016 58.4297 133.094 58.4141L133.102 59.9609C132.93 60.0182 132.734 60.0651 132.516 60.1016C132.302 60.138 132.06 60.1562 131.789 60.1562C131.326 60.1562 130.919 60.0781 130.57 59.9219C130.221 59.7604 129.951 59.5026 129.758 59.1484C129.565 58.7891 129.469 58.3151 129.469 57.7266V49.4688ZM136.414 48V60H134.344V48H136.414ZM136.086 55.4688H135.477C135.477 54.8802 135.555 54.3385 135.711 53.8438C135.867 53.349 136.089 52.9193 136.375 52.5547C136.661 52.1849 137.003 51.8984 137.398 51.6953C137.799 51.4922 138.242 51.3906 138.727 51.3906C139.143 51.3906 139.521 51.4505 139.859 51.5703C140.203 51.6849 140.497 51.8698 140.742 52.125C140.987 52.3802 141.174 52.7135 141.305 53.125C141.44 53.5312 141.508 54.026 141.508 54.6094V60H139.43V54.5938C139.43 54.2031 139.372 53.8958 139.258 53.6719C139.143 53.4427 138.979 53.2786 138.766 53.1797C138.557 53.0807 138.299 53.0312 137.992 53.0312C137.659 53.0312 137.372 53.0964 137.133 53.2266C136.893 53.3516 136.695 53.526 136.539 53.75C136.388 53.974 136.273 54.2318 136.195 54.5234C136.122 54.8151 136.086 55.1302 136.086 55.4688ZM147.125 60.1562C146.484 60.1562 145.909 60.0521 145.398 59.8438C144.888 59.6354 144.453 59.3464 144.094 58.9766C143.74 58.6016 143.466 58.1667 143.273 57.6719C143.086 57.1719 142.992 56.6354 142.992 56.0625V55.75C142.992 55.099 143.086 54.5078 143.273 53.9766C143.461 53.4401 143.727 52.9792 144.07 52.5938C144.414 52.2083 144.826 51.9115 145.305 51.7031C145.784 51.4948 146.312 51.3906 146.891 51.3906C147.49 51.3906 148.018 51.4922 148.477 51.6953C148.935 51.8932 149.318 52.1745 149.625 52.5391C149.932 52.9036 150.164 53.3411 150.32 53.8516C150.477 54.3568 150.555 54.9167 150.555 55.5312V56.3984H143.93V54.9766H148.523V54.8203C148.513 54.4922 148.451 54.1927 148.336 53.9219C148.221 53.6458 148.044 53.4271 147.805 53.2656C147.565 53.099 147.255 53.0156 146.875 53.0156C146.568 53.0156 146.299 53.0833 146.07 53.2188C145.846 53.349 145.659 53.5365 145.508 53.7812C145.362 54.0208 145.253 54.3073 145.18 54.6406C145.107 54.974 145.07 55.3438 145.07 55.75V56.0625C145.07 56.4167 145.117 56.7448 145.211 57.0469C145.31 57.349 145.453 57.612 145.641 57.8359C145.833 58.0547 146.062 58.2266 146.328 58.3516C146.599 58.4714 146.906 58.5312 147.25 58.5312C147.682 58.5312 148.073 58.4479 148.422 58.2812C148.776 58.1094 149.083 57.8568 149.344 57.5234L150.383 58.6016C150.206 58.862 149.966 59.112 149.664 59.3516C149.367 59.5911 149.008 59.7865 148.586 59.9375C148.164 60.0833 147.677 60.1562 147.125 60.1562ZM155.914 48H157.984V58.1328L157.781 60H155.914V48ZM163.422 55.6875V55.8516C163.422 56.4818 163.352 57.0599 163.211 57.5859C163.076 58.112 162.87 58.5677 162.594 58.9531C162.318 59.3333 161.974 59.6302 161.562 59.8438C161.156 60.0521 160.68 60.1562 160.133 60.1562C159.612 60.1562 159.159 60.0547 158.773 59.8516C158.393 59.6484 158.073 59.362 157.812 58.9922C157.552 58.6172 157.344 58.1771 157.188 57.6719C157.031 57.1615 156.914 56.6042 156.836 56V55.5547C156.914 54.9453 157.031 54.388 157.188 53.8828C157.344 53.3776 157.552 52.9375 157.812 52.5625C158.073 52.1875 158.393 51.8984 158.773 51.6953C159.154 51.4922 159.602 51.3906 160.117 51.3906C160.669 51.3906 161.151 51.4974 161.562 51.7109C161.979 51.9193 162.323 52.2161 162.594 52.6016C162.87 52.9818 163.076 53.4349 163.211 53.9609C163.352 54.4818 163.422 55.0573 163.422 55.6875ZM161.352 55.8516V55.6875C161.352 55.3281 161.323 54.9896 161.266 54.6719C161.208 54.349 161.115 54.0651 160.984 53.8203C160.854 53.5755 160.677 53.3828 160.453 53.2422C160.229 53.1016 159.948 53.0312 159.609 53.0312C159.286 53.0312 159.01 53.0859 158.781 53.1953C158.557 53.3047 158.37 53.4557 158.219 53.6484C158.073 53.8411 157.958 54.0677 157.875 54.3281C157.797 54.5885 157.745 54.8698 157.719 55.1719V56.3906C157.755 56.7917 157.841 57.1536 157.977 57.4766C158.112 57.7943 158.312 58.0469 158.578 58.2344C158.849 58.4219 159.198 58.5156 159.625 58.5156C159.958 58.5156 160.237 58.4505 160.461 58.3203C160.685 58.1849 160.862 57.9974 160.992 57.7578C161.122 57.513 161.214 57.2292 161.266 56.9062C161.323 56.5833 161.352 56.2318 161.352 55.8516ZM168.719 60.1562C168.078 60.1562 167.503 60.0521 166.992 59.8438C166.482 59.6354 166.047 59.3464 165.688 58.9766C165.333 58.6016 165.06 58.1667 164.867 57.6719C164.68 57.1719 164.586 56.6354 164.586 56.0625V55.75C164.586 55.099 164.68 54.5078 164.867 53.9766C165.055 53.4401 165.32 52.9792 165.664 52.5938C166.008 52.2083 166.419 51.9115 166.898 51.7031C167.378 51.4948 167.906 51.3906 168.484 51.3906C169.083 51.3906 169.612 51.4922 170.07 51.6953C170.529 51.8932 170.911 52.1745 171.219 52.5391C171.526 52.9036 171.758 53.3411 171.914 53.8516C172.07 54.3568 172.148 54.9167 172.148 55.5312V56.3984H165.523V54.9766H170.117V54.8203C170.107 54.4922 170.044 54.1927 169.93 53.9219C169.815 53.6458 169.638 53.4271 169.398 53.2656C169.159 53.099 168.849 53.0156 168.469 53.0156C168.161 53.0156 167.893 53.0833 167.664 53.2188C167.44 53.349 167.253 53.5365 167.102 53.7812C166.956 54.0208 166.846 54.3073 166.773 54.6406C166.701 54.974 166.664 55.3438 166.664 55.75V56.0625C166.664 56.4167 166.711 56.7448 166.805 57.0469C166.904 57.349 167.047 57.612 167.234 57.8359C167.427 58.0547 167.656 58.2266 167.922 58.3516C168.193 58.4714 168.5 58.5312 168.844 58.5312C169.276 58.5312 169.667 58.4479 170.016 58.2812C170.37 58.1094 170.677 57.8568 170.938 57.5234L171.977 58.6016C171.799 58.862 171.56 59.112 171.258 59.3516C170.961 59.5911 170.602 59.7865 170.18 59.9375C169.758 60.0833 169.271 60.1562 168.719 60.1562ZM178.18 57.6875C178.18 57.5104 178.133 57.3516 178.039 57.2109C177.945 57.0703 177.768 56.9427 177.508 56.8281C177.253 56.7083 176.878 56.5964 176.383 56.4922C175.945 56.3984 175.542 56.2812 175.172 56.1406C174.802 56 174.484 55.8307 174.219 55.6328C173.953 55.4297 173.745 55.1927 173.594 54.9219C173.448 54.6458 173.375 54.3281 173.375 53.9688C173.375 53.6198 173.451 53.2917 173.602 52.9844C173.753 52.6719 173.971 52.3984 174.258 52.1641C174.544 51.9245 174.893 51.737 175.305 51.6016C175.716 51.4609 176.18 51.3906 176.695 51.3906C177.414 51.3906 178.031 51.5078 178.547 51.7422C179.068 51.9766 179.466 52.2995 179.742 52.7109C180.018 53.1172 180.156 53.5755 180.156 54.0859H178.094C178.094 53.862 178.042 53.6589 177.938 53.4766C177.839 53.2943 177.685 53.1484 177.477 53.0391C177.268 52.9245 177.005 52.8672 176.688 52.8672C176.401 52.8672 176.159 52.9141 175.961 53.0078C175.768 53.1016 175.622 53.224 175.523 53.375C175.424 53.526 175.375 53.6927 175.375 53.875C175.375 54.0104 175.401 54.1328 175.453 54.2422C175.51 54.3464 175.602 54.4427 175.727 54.5312C175.852 54.6198 176.021 54.7005 176.234 54.7734C176.453 54.8464 176.721 54.9167 177.039 54.9844C177.669 55.1094 178.219 55.276 178.688 55.4844C179.161 55.6875 179.531 55.9583 179.797 56.2969C180.062 56.6354 180.195 57.0677 180.195 57.5938C180.195 57.9688 180.115 58.3125 179.953 58.625C179.792 58.9323 179.557 59.2005 179.25 59.4297C178.943 59.6589 178.576 59.8385 178.148 59.9688C177.721 60.0938 177.24 60.1562 176.703 60.1562C175.927 60.1562 175.271 60.0182 174.734 59.7422C174.198 59.4609 173.792 59.1068 173.516 58.6797C173.24 58.2474 173.102 57.7995 173.102 57.3359H175.078C175.094 57.6641 175.182 57.9271 175.344 58.125C175.505 58.3229 175.708 58.4661 175.953 58.5547C176.203 58.638 176.466 58.6797 176.742 58.6797C177.055 58.6797 177.318 58.638 177.531 58.5547C177.745 58.4661 177.906 58.349 178.016 58.2031C178.125 58.0521 178.18 57.8802 178.18 57.6875ZM185.766 51.5469V53.0312H180.922V51.5469H185.766ZM182.219 49.4688H184.289V57.5625C184.289 57.8125 184.323 58.0052 184.391 58.1406C184.458 58.276 184.56 58.3672 184.695 58.4141C184.831 58.4609 184.992 58.4844 185.18 58.4844C185.315 58.4844 185.44 58.4766 185.555 58.4609C185.669 58.4453 185.766 58.4297 185.844 58.4141L185.852 59.9609C185.68 60.0182 185.484 60.0651 185.266 60.1016C185.052 60.138 184.81 60.1562 184.539 60.1562C184.076 60.1562 183.669 60.0781 183.32 59.9219C182.971 59.7604 182.701 59.5026 182.508 59.1484C182.315 58.7891 182.219 58.3151 182.219 57.7266V49.4688ZM196.188 63.25V53.25L196.438 51.5469H198.266V63.25H196.188ZM190.766 55.8594V55.6953C190.766 55.0495 190.839 54.4635 190.984 53.9375C191.13 53.4062 191.344 52.9531 191.625 52.5781C191.911 52.1979 192.26 51.9062 192.672 51.7031C193.083 51.4948 193.555 51.3906 194.086 51.3906C194.607 51.3906 195.057 51.4922 195.438 51.6953C195.818 51.8984 196.141 52.1875 196.406 52.5625C196.672 52.9323 196.883 53.3724 197.039 53.8828C197.201 54.3932 197.32 54.9583 197.398 55.5781V56.0234C197.32 56.6172 197.201 57.1667 197.039 57.6719C196.883 58.1719 196.672 58.6094 196.406 58.9844C196.146 59.3542 195.823 59.6432 195.438 59.8516C195.052 60.0547 194.596 60.1562 194.07 60.1562C193.544 60.1562 193.076 60.0495 192.664 59.8359C192.258 59.6172 191.911 59.3151 191.625 58.9297C191.344 58.5443 191.13 58.0911 190.984 57.5703C190.839 57.0443 190.766 56.474 190.766 55.8594ZM192.836 55.6953V55.8594C192.836 56.2292 192.867 56.5755 192.93 56.8984C192.997 57.2161 193.102 57.4974 193.242 57.7422C193.383 57.987 193.562 58.1797 193.781 58.3203C194.005 58.4609 194.276 58.5312 194.594 58.5312C195.021 58.5312 195.367 58.4375 195.633 58.25C195.904 58.0625 196.107 57.8099 196.242 57.4922C196.383 57.1693 196.474 56.8099 196.516 56.4141V55.1953C196.49 54.8776 196.435 54.5859 196.352 54.3203C196.268 54.0547 196.151 53.8255 196 53.6328C195.854 53.4401 195.667 53.2891 195.438 53.1797C195.208 53.0703 194.932 53.0156 194.609 53.0156C194.292 53.0156 194.021 53.0859 193.797 53.2266C193.573 53.362 193.391 53.5521 193.25 53.7969C193.109 54.0417 193.005 54.3255 192.938 54.6484C192.87 54.9714 192.836 55.3203 192.836 55.6953ZM205.203 57.9922V51.5469H207.281V60H205.328L205.203 57.9922ZM205.469 56.2422L206.109 56.2266C206.109 56.7943 206.047 57.3177 205.922 57.7969C205.797 58.276 205.602 58.6927 205.336 59.0469C205.076 59.3958 204.745 59.6693 204.344 59.8672C203.943 60.0599 203.469 60.1562 202.922 60.1562C202.505 60.1562 202.125 60.099 201.781 59.9844C201.438 59.8646 201.141 59.6797 200.891 59.4297C200.646 59.1745 200.456 58.849 200.32 58.4531C200.185 58.0521 200.117 57.5703 200.117 57.0078V51.5469H202.18V57.0234C202.18 57.3047 202.211 57.5391 202.273 57.7266C202.341 57.9141 202.432 58.0677 202.547 58.1875C202.667 58.3021 202.805 58.3854 202.961 58.4375C203.122 58.4844 203.294 58.5078 203.477 58.5078C203.977 58.5078 204.37 58.4089 204.656 58.2109C204.948 58.0078 205.156 57.737 205.281 57.3984C205.406 57.0547 205.469 56.6693 205.469 56.2422ZM213.766 58.2031V54.3047C213.766 54.0182 213.716 53.7708 213.617 53.5625C213.518 53.3542 213.367 53.1927 213.164 53.0781C212.961 52.9635 212.703 52.9062 212.391 52.9062C212.115 52.9062 211.872 52.9531 211.664 53.0469C211.461 53.1406 211.305 53.2734 211.195 53.4453C211.086 53.612 211.031 53.8047 211.031 54.0234H208.961C208.961 53.6745 209.044 53.3438 209.211 53.0312C209.378 52.7135 209.615 52.4323 209.922 52.1875C210.234 51.9375 210.607 51.7422 211.039 51.6016C211.477 51.4609 211.966 51.3906 212.508 51.3906C213.148 51.3906 213.719 51.5 214.219 51.7188C214.724 51.9323 215.12 52.2552 215.406 52.6875C215.698 53.1198 215.844 53.6641 215.844 54.3203V58.0078C215.844 58.4297 215.87 58.7917 215.922 59.0938C215.979 59.3906 216.062 59.6484 216.172 59.8672V60H214.07C213.971 59.7865 213.896 59.5156 213.844 59.1875C213.792 58.8542 213.766 58.526 213.766 58.2031ZM214.055 54.8516L214.07 56.0781H212.766C212.443 56.0781 212.159 56.112 211.914 56.1797C211.669 56.2422 211.469 56.3359 211.312 56.4609C211.156 56.5807 211.039 56.7266 210.961 56.8984C210.883 57.0651 210.844 57.2552 210.844 57.4688C210.844 57.6771 210.891 57.8646 210.984 58.0312C211.083 58.1979 211.224 58.3307 211.406 58.4297C211.594 58.5234 211.812 58.5703 212.062 58.5703C212.427 58.5703 212.745 58.4974 213.016 58.3516C213.286 58.2005 213.497 58.0182 213.648 57.8047C213.799 57.5911 213.88 57.388 213.891 57.1953L214.484 58.0859C214.411 58.2995 214.302 58.526 214.156 58.7656C214.01 59.0052 213.823 59.2292 213.594 59.4375C213.365 59.6458 213.089 59.8177 212.766 59.9531C212.443 60.0885 212.068 60.1562 211.641 60.1562C211.094 60.1562 210.604 60.0469 210.172 59.8281C209.74 59.6094 209.398 59.3099 209.148 58.9297C208.898 58.5495 208.773 58.1172 208.773 57.6328C208.773 57.1849 208.857 56.7891 209.023 56.4453C209.19 56.1016 209.438 55.8125 209.766 55.5781C210.094 55.3385 210.5 55.1589 210.984 55.0391C211.474 54.9141 212.034 54.8516 212.664 54.8516H214.055ZM219.891 48V60H217.82V48H219.891ZM224.047 51.5469V60H221.977V51.5469H224.047ZM221.836 49.3359C221.836 49.0286 221.94 48.7734 222.148 48.5703C222.362 48.3672 222.648 48.2656 223.008 48.2656C223.367 48.2656 223.651 48.3672 223.859 48.5703C224.073 48.7734 224.18 49.0286 224.18 49.3359C224.18 49.638 224.073 49.8906 223.859 50.0938C223.651 50.2969 223.367 50.3984 223.008 50.3984C222.648 50.3984 222.362 50.2969 222.148 50.0938C221.94 49.8906 221.836 49.638 221.836 49.3359ZM230.016 51.5469V53.0312H225.172V51.5469H230.016ZM226.469 49.4688H228.539V57.5625C228.539 57.8125 228.573 58.0052 228.641 58.1406C228.708 58.276 228.81 58.3672 228.945 58.4141C229.081 58.4609 229.242 58.4844 229.43 58.4844C229.565 58.4844 229.69 58.4766 229.805 58.4609C229.919 58.4453 230.016 58.4297 230.094 58.4141L230.102 59.9609C229.93 60.0182 229.734 60.0651 229.516 60.1016C229.302 60.138 229.06 60.1562 228.789 60.1562C228.326 60.1562 227.919 60.0781 227.57 59.9219C227.221 59.7604 226.951 59.5026 226.758 59.1484C226.565 58.7891 226.469 58.3151 226.469 57.7266V49.4688ZM233.867 59.0625L236.133 51.5469H238.344L234.953 61.2812C234.875 61.4896 234.773 61.7161 234.648 61.9609C234.529 62.2057 234.367 62.4375 234.164 62.6562C233.961 62.8802 233.706 63.0625 233.398 63.2031C233.096 63.3438 232.729 63.4141 232.297 63.4141C232.109 63.4141 231.943 63.401 231.797 63.375C231.651 63.349 231.497 63.3151 231.336 63.2734V61.7266C231.388 61.7318 231.448 61.7344 231.516 61.7344C231.589 61.7396 231.651 61.7422 231.703 61.7422C232.005 61.7422 232.255 61.7057 232.453 61.6328C232.651 61.5651 232.81 61.4531 232.93 61.2969C233.055 61.1458 233.159 60.9479 233.242 60.7031L233.867 59.0625ZM232.75 51.5469L234.664 57.7734L235 59.9531L233.578 60.2109L230.523 51.5469H232.75ZM245.391 53.1719V63.25H243.32V51.5469H245.234L245.391 53.1719ZM250.82 55.6875V55.8516C250.82 56.4661 250.747 57.0365 250.602 57.5625C250.461 58.0833 250.253 58.5391 249.977 58.9297C249.701 59.3151 249.357 59.6172 248.945 59.8359C248.539 60.0495 248.07 60.1562 247.539 60.1562C247.018 60.1562 246.565 60.0573 246.18 59.8594C245.794 59.6562 245.469 59.3698 245.203 59C244.938 58.6302 244.724 58.2005 244.562 57.7109C244.406 57.2161 244.289 56.6771 244.211 56.0938V55.5703C244.289 54.9505 244.406 54.388 244.562 53.8828C244.724 53.3724 244.938 52.9323 245.203 52.5625C245.469 52.1875 245.792 51.8984 246.172 51.6953C246.557 51.4922 247.008 51.3906 247.523 51.3906C248.06 51.3906 248.531 51.4922 248.938 51.6953C249.349 51.8984 249.695 52.1901 249.977 52.5703C250.258 52.9505 250.469 53.4036 250.609 53.9297C250.75 54.4557 250.82 55.0417 250.82 55.6875ZM248.75 55.8516V55.6875C248.75 55.3125 248.716 54.9661 248.648 54.6484C248.581 54.3255 248.477 54.0443 248.336 53.8047C248.195 53.5599 248.013 53.3698 247.789 53.2344C247.565 53.099 247.294 53.0312 246.977 53.0312C246.659 53.0312 246.385 53.0833 246.156 53.1875C245.927 53.2917 245.74 53.4401 245.594 53.6328C245.448 53.8255 245.333 54.0547 245.25 54.3203C245.172 54.5807 245.12 54.8698 245.094 55.1875V56.4844C245.141 56.8698 245.232 57.2161 245.367 57.5234C245.503 57.8307 245.701 58.0755 245.961 58.2578C246.227 58.4401 246.57 58.5312 246.992 58.5312C247.31 58.5312 247.581 58.4609 247.805 58.3203C248.029 58.1797 248.211 57.987 248.352 57.7422C248.492 57.4922 248.594 57.2057 248.656 56.8828C248.719 56.5599 248.75 56.2161 248.75 55.8516ZM254.391 53.2734V60H252.328V51.5469H254.281L254.391 53.2734ZM256.961 51.4922L256.93 53.4141C256.815 53.3932 256.685 53.3776 256.539 53.3672C256.398 53.3568 256.266 53.3516 256.141 53.3516C255.823 53.3516 255.544 53.3958 255.305 53.4844C255.065 53.5677 254.865 53.6901 254.703 53.8516C254.547 54.013 254.427 54.2109 254.344 54.4453C254.26 54.6745 254.214 54.9349 254.203 55.2266L253.758 55.1719C253.758 54.6354 253.812 54.138 253.922 53.6797C254.031 53.2214 254.19 52.8203 254.398 52.4766C254.607 52.1328 254.867 51.8672 255.18 51.6797C255.497 51.487 255.862 51.3906 256.273 51.3906C256.388 51.3906 256.51 51.401 256.641 51.4219C256.776 51.4375 256.883 51.4609 256.961 51.4922ZM257.508 55.8594V55.6953C257.508 55.0755 257.596 54.5052 257.773 53.9844C257.951 53.4583 258.208 53.0026 258.547 52.6172C258.885 52.2318 259.299 51.9323 259.789 51.7188C260.279 51.5 260.836 51.3906 261.461 51.3906C262.096 51.3906 262.659 51.5 263.148 51.7188C263.643 51.9323 264.06 52.2318 264.398 52.6172C264.737 53.0026 264.995 53.4583 265.172 53.9844C265.349 54.5052 265.438 55.0755 265.438 55.6953V55.8594C265.438 56.474 265.349 57.0443 265.172 57.5703C264.995 58.0911 264.737 58.5469 264.398 58.9375C264.06 59.3229 263.646 59.6224 263.156 59.8359C262.667 60.0495 262.107 60.1562 261.477 60.1562C260.852 60.1562 260.292 60.0495 259.797 59.8359C259.302 59.6224 258.885 59.3229 258.547 58.9375C258.208 58.5469 257.951 58.0911 257.773 57.5703C257.596 57.0443 257.508 56.474 257.508 55.8594ZM259.57 55.6953V55.8594C259.57 56.2292 259.607 56.5755 259.68 56.8984C259.753 57.2214 259.865 57.5052 260.016 57.75C260.167 57.9948 260.362 58.1875 260.602 58.3281C260.846 58.4635 261.138 58.5312 261.477 58.5312C261.81 58.5312 262.096 58.4635 262.336 58.3281C262.576 58.1875 262.771 57.9948 262.922 57.75C263.078 57.5052 263.193 57.2214 263.266 56.8984C263.339 56.5755 263.375 56.2292 263.375 55.8594V55.6953C263.375 55.3307 263.339 54.9896 263.266 54.6719C263.193 54.349 263.078 54.0651 262.922 53.8203C262.771 53.5703 262.573 53.375 262.328 53.2344C262.089 53.0885 261.799 53.0156 261.461 53.0156C261.128 53.0156 260.841 53.0885 260.602 53.2344C260.362 53.375 260.167 53.5703 260.016 53.8203C259.865 54.0651 259.753 54.349 259.68 54.6719C259.607 54.9896 259.57 55.3307 259.57 55.6953ZM272.008 58.2031V48H274.086V60H272.211L272.008 58.2031ZM266.578 55.875V55.7109C266.578 55.0651 266.651 54.4792 266.797 53.9531C266.948 53.4219 267.167 52.9661 267.453 52.5859C267.74 52.2057 268.086 51.9115 268.492 51.7031C268.904 51.4948 269.37 51.3906 269.891 51.3906C270.396 51.3906 270.836 51.4922 271.211 51.6953C271.591 51.8984 271.914 52.1875 272.18 52.5625C272.451 52.9375 272.667 53.3828 272.828 53.8984C272.99 54.4089 273.107 54.9714 273.18 55.5859V56.0312C273.107 56.6302 272.99 57.1797 272.828 57.6797C272.667 58.1797 272.451 58.6172 272.18 58.9922C271.914 59.362 271.591 59.6484 271.211 59.8516C270.831 60.0547 270.385 60.1562 269.875 60.1562C269.359 60.1562 268.896 60.0495 268.484 59.8359C268.078 59.6224 267.732 59.3229 267.445 58.9375C267.164 58.5521 266.948 58.099 266.797 57.5781C266.651 57.0573 266.578 56.4896 266.578 55.875ZM268.648 55.7109V55.875C268.648 56.2396 268.68 56.5807 268.742 56.8984C268.805 57.2161 268.906 57.4974 269.047 57.7422C269.188 57.9818 269.367 58.1693 269.586 58.3047C269.81 58.4401 270.081 58.5078 270.398 58.5078C270.805 58.5078 271.138 58.4193 271.398 58.2422C271.664 58.0599 271.87 57.8125 272.016 57.5C272.161 57.1823 272.255 56.8255 272.297 56.4297V55.2031C272.276 54.8906 272.221 54.6016 272.133 54.3359C272.049 54.0703 271.93 53.8411 271.773 53.6484C271.622 53.4557 271.435 53.3047 271.211 53.1953C270.987 53.0859 270.721 53.0312 270.414 53.0312C270.096 53.0312 269.826 53.1016 269.602 53.2422C269.378 53.3776 269.195 53.5677 269.055 53.8125C268.914 54.0573 268.81 54.3411 268.742 54.6641C268.68 54.987 268.648 55.3359 268.648 55.7109ZM280.984 57.9922V51.5469H283.062V60H281.109L280.984 57.9922ZM281.25 56.2422L281.891 56.2266C281.891 56.7943 281.828 57.3177 281.703 57.7969C281.578 58.276 281.383 58.6927 281.117 59.0469C280.857 59.3958 280.526 59.6693 280.125 59.8672C279.724 60.0599 279.25 60.1562 278.703 60.1562C278.286 60.1562 277.906 60.099 277.562 59.9844C277.219 59.8646 276.922 59.6797 276.672 59.4297C276.427 59.1745 276.237 58.849 276.102 58.4531C275.966 58.0521 275.898 57.5703 275.898 57.0078V51.5469H277.961V57.0234C277.961 57.3047 277.992 57.5391 278.055 57.7266C278.122 57.9141 278.214 58.0677 278.328 58.1875C278.448 58.3021 278.586 58.3854 278.742 58.4375C278.904 58.4844 279.076 58.5078 279.258 58.5078C279.758 58.5078 280.151 58.4089 280.438 58.2109C280.729 58.0078 280.938 57.737 281.062 57.3984C281.188 57.0547 281.25 56.6693 281.25 56.2422ZM288.359 58.5312C288.651 58.5312 288.911 58.474 289.141 58.3594C289.37 58.2448 289.552 58.0833 289.688 57.875C289.828 57.6667 289.904 57.4245 289.914 57.1484H291.859C291.849 57.7214 291.688 58.2344 291.375 58.6875C291.062 59.1406 290.646 59.5 290.125 59.7656C289.609 60.026 289.031 60.1562 288.391 60.1562C287.74 60.1562 287.172 60.0469 286.688 59.8281C286.203 59.6094 285.799 59.3047 285.477 58.9141C285.159 58.5234 284.919 58.0703 284.758 57.5547C284.602 57.0391 284.523 56.487 284.523 55.8984V55.6484C284.523 55.0599 284.602 54.5078 284.758 53.9922C284.919 53.4766 285.159 53.0234 285.477 52.6328C285.799 52.2422 286.203 51.9375 286.688 51.7188C287.172 51.5 287.737 51.3906 288.383 51.3906C289.065 51.3906 289.664 51.5234 290.18 51.7891C290.701 52.0547 291.107 52.4297 291.398 52.9141C291.695 53.3984 291.849 53.9688 291.859 54.625H289.914C289.904 54.3229 289.836 54.0521 289.711 53.8125C289.586 53.5729 289.409 53.3802 289.18 53.2344C288.951 53.0885 288.672 53.0156 288.344 53.0156C287.995 53.0156 287.703 53.0885 287.469 53.2344C287.24 53.3802 287.06 53.5807 286.93 53.8359C286.805 54.0859 286.716 54.3672 286.664 54.6797C286.617 54.987 286.594 55.3099 286.594 55.6484V55.8984C286.594 56.2422 286.617 56.5703 286.664 56.8828C286.716 57.1953 286.805 57.4766 286.93 57.7266C287.06 57.9714 287.24 58.1667 287.469 58.3125C287.703 58.4583 288 58.5312 288.359 58.5312ZM297.234 51.5469V53.0312H292.391V51.5469H297.234ZM293.688 49.4688H295.758V57.5625C295.758 57.8125 295.792 58.0052 295.859 58.1406C295.927 58.276 296.029 58.3672 296.164 58.4141C296.299 58.4609 296.461 58.4844 296.648 58.4844C296.784 58.4844 296.909 58.4766 297.023 58.4609C297.138 58.4453 297.234 58.4297 297.312 58.4141L297.32 59.9609C297.148 60.0182 296.953 60.0651 296.734 60.1016C296.521 60.138 296.279 60.1562 296.008 60.1562C295.544 60.1562 295.138 60.0781 294.789 59.9219C294.44 59.7604 294.169 59.5026 293.977 59.1484C293.784 58.7891 293.688 58.3151 293.688 57.7266V49.4688ZM303.258 57.6875C303.258 57.5104 303.211 57.3516 303.117 57.2109C303.023 57.0703 302.846 56.9427 302.586 56.8281C302.331 56.7083 301.956 56.5964 301.461 56.4922C301.023 56.3984 300.62 56.2812 300.25 56.1406C299.88 56 299.562 55.8307 299.297 55.6328C299.031 55.4297 298.823 55.1927 298.672 54.9219C298.526 54.6458 298.453 54.3281 298.453 53.9688C298.453 53.6198 298.529 53.2917 298.68 52.9844C298.831 52.6719 299.049 52.3984 299.336 52.1641C299.622 51.9245 299.971 51.737 300.383 51.6016C300.794 51.4609 301.258 51.3906 301.773 51.3906C302.492 51.3906 303.109 51.5078 303.625 51.7422C304.146 51.9766 304.544 52.2995 304.82 52.7109C305.096 53.1172 305.234 53.5755 305.234 54.0859H303.172C303.172 53.862 303.12 53.6589 303.016 53.4766C302.917 53.2943 302.763 53.1484 302.555 53.0391C302.346 52.9245 302.083 52.8672 301.766 52.8672C301.479 52.8672 301.237 52.9141 301.039 53.0078C300.846 53.1016 300.701 53.224 300.602 53.375C300.503 53.526 300.453 53.6927 300.453 53.875C300.453 54.0104 300.479 54.1328 300.531 54.2422C300.589 54.3464 300.68 54.4427 300.805 54.5312C300.93 54.6198 301.099 54.7005 301.312 54.7734C301.531 54.8464 301.799 54.9167 302.117 54.9844C302.747 55.1094 303.297 55.276 303.766 55.4844C304.24 55.6875 304.609 55.9583 304.875 56.2969C305.141 56.6354 305.273 57.0677 305.273 57.5938C305.273 57.9688 305.193 58.3125 305.031 58.625C304.87 58.9323 304.635 59.2005 304.328 59.4297C304.021 59.6589 303.654 59.8385 303.227 59.9688C302.799 60.0938 302.318 60.1562 301.781 60.1562C301.005 60.1562 300.349 60.0182 299.812 59.7422C299.276 59.4609 298.87 59.1068 298.594 58.6797C298.318 58.2474 298.18 57.7995 298.18 57.3359H300.156C300.172 57.6641 300.26 57.9271 300.422 58.125C300.583 58.3229 300.786 58.4661 301.031 58.5547C301.281 58.638 301.544 58.6797 301.82 58.6797C302.133 58.6797 302.396 58.638 302.609 58.5547C302.823 58.4661 302.984 58.349 303.094 58.2031C303.203 58.0521 303.258 57.8802 303.258 57.6875Z" fill="black"/>
<path d="M135.297 18.1094V27.125C134.943 27.5521 134.396 28.0156 133.656 28.5156C132.917 29.0052 131.964 29.4271 130.797 29.7812C129.63 30.1354 128.219 30.3125 126.562 30.3125C125.094 30.3125 123.755 30.0729 122.547 29.5938C121.339 29.1042 120.297 28.3906 119.422 27.4531C118.557 26.5156 117.891 25.3698 117.422 24.0156C116.953 22.651 116.719 21.0938 116.719 19.3438V17.9219C116.719 16.1719 116.943 14.6146 117.391 13.25C117.849 11.8854 118.5 10.7344 119.344 9.79688C120.188 8.85938 121.193 8.14583 122.359 7.65625C123.526 7.16667 124.823 6.92188 126.25 6.92188C128.229 6.92188 129.854 7.24479 131.125 7.89062C132.396 8.52604 133.365 9.41146 134.031 10.5469C134.708 11.6719 135.125 12.9635 135.281 14.4219H130.734C130.62 13.651 130.401 12.9792 130.078 12.4062C129.755 11.8333 129.292 11.3854 128.688 11.0625C128.094 10.7396 127.323 10.5781 126.375 10.5781C125.594 10.5781 124.896 10.7396 124.281 11.0625C123.677 11.375 123.167 11.8385 122.75 12.4531C122.333 13.0677 122.016 13.8281 121.797 14.7344C121.578 15.6406 121.469 16.6927 121.469 17.8906V19.3438C121.469 20.5312 121.583 21.5833 121.812 22.5C122.042 23.4062 122.38 24.1719 122.828 24.7969C123.286 25.4115 123.849 25.875 124.516 26.1875C125.182 26.5 125.958 26.6562 126.844 26.6562C127.583 26.6562 128.198 26.5938 128.688 26.4688C129.188 26.3438 129.589 26.1927 129.891 26.0156C130.203 25.8281 130.443 25.651 130.609 25.4844V21.4531H126.328V18.1094H135.297ZM143.297 16.7812V30H138.797V13.0938H143.031L143.297 16.7812ZM148.391 12.9844L148.312 17.1562C148.094 17.125 147.828 17.099 147.516 17.0781C147.214 17.0469 146.938 17.0312 146.688 17.0312C146.052 17.0312 145.5 17.1146 145.031 17.2812C144.573 17.4375 144.188 17.6719 143.875 17.9844C143.573 18.2969 143.344 18.6771 143.188 19.125C143.042 19.5729 142.958 20.0833 142.938 20.6562L142.031 20.375C142.031 19.2812 142.141 18.276 142.359 17.3594C142.578 16.4323 142.896 15.625 143.312 14.9375C143.74 14.25 144.26 13.7188 144.875 13.3438C145.49 12.9688 146.193 12.7812 146.984 12.7812C147.234 12.7812 147.49 12.8021 147.75 12.8438C148.01 12.875 148.224 12.9219 148.391 12.9844ZM149.328 21.7188V21.3906C149.328 20.151 149.505 19.0104 149.859 17.9688C150.214 16.9167 150.729 16.0052 151.406 15.2344C152.083 14.4635 152.917 13.8646 153.906 13.4375C154.896 13 156.031 12.7812 157.312 12.7812C158.594 12.7812 159.734 13 160.734 13.4375C161.734 13.8646 162.573 14.4635 163.25 15.2344C163.938 16.0052 164.458 16.9167 164.812 17.9688C165.167 19.0104 165.344 20.151 165.344 21.3906V21.7188C165.344 22.9479 165.167 24.0885 164.812 25.1406C164.458 26.1823 163.938 27.0938 163.25 27.875C162.573 28.6458 161.74 29.2448 160.75 29.6719C159.76 30.099 158.625 30.3125 157.344 30.3125C156.062 30.3125 154.922 30.099 153.922 29.6719C152.932 29.2448 152.094 28.6458 151.406 27.875C150.729 27.0938 150.214 26.1823 149.859 25.1406C149.505 24.0885 149.328 22.9479 149.328 21.7188ZM153.828 21.3906V21.7188C153.828 22.4271 153.891 23.0885 154.016 23.7031C154.141 24.3177 154.339 24.8594 154.609 25.3281C154.891 25.7865 155.255 26.1458 155.703 26.4062C156.151 26.6667 156.698 26.7969 157.344 26.7969C157.969 26.7969 158.505 26.6667 158.953 26.4062C159.401 26.1458 159.76 25.7865 160.031 25.3281C160.302 24.8594 160.5 24.3177 160.625 23.7031C160.76 23.0885 160.828 22.4271 160.828 21.7188V21.3906C160.828 20.7031 160.76 20.0573 160.625 19.4531C160.5 18.8385 160.297 18.2969 160.016 17.8281C159.745 17.349 159.385 16.974 158.938 16.7031C158.49 16.4323 157.948 16.2969 157.312 16.2969C156.677 16.2969 156.135 16.4323 155.688 16.7031C155.25 16.974 154.891 17.349 154.609 17.8281C154.339 18.2969 154.141 18.8385 154.016 19.4531C153.891 20.0573 153.828 20.7031 153.828 21.3906ZM175.094 26.7969C175.646 26.7969 176.135 26.6927 176.562 26.4844C176.99 26.2656 177.323 25.9635 177.562 25.5781C177.812 25.1823 177.943 24.7188 177.953 24.1875H182.188C182.177 25.375 181.859 26.4323 181.234 27.3594C180.609 28.276 179.771 29 178.719 29.5312C177.667 30.0521 176.49 30.3125 175.188 30.3125C173.875 30.3125 172.729 30.0938 171.75 29.6562C170.781 29.2188 169.974 28.6146 169.328 27.8438C168.682 27.0625 168.198 26.1562 167.875 25.125C167.552 24.0833 167.391 22.9688 167.391 21.7812V21.3281C167.391 20.1302 167.552 19.0156 167.875 17.9844C168.198 16.9427 168.682 16.0365 169.328 15.2656C169.974 14.4844 170.781 13.875 171.75 13.4375C172.719 13 173.854 12.7812 175.156 12.7812C176.542 12.7812 177.755 13.0469 178.797 13.5781C179.849 14.1094 180.672 14.8698 181.266 15.8594C181.87 16.8385 182.177 18 182.188 19.3438H177.953C177.943 18.7812 177.823 18.2708 177.594 17.8125C177.375 17.3542 177.052 16.9896 176.625 16.7188C176.208 16.4375 175.693 16.2969 175.078 16.2969C174.422 16.2969 173.885 16.4375 173.469 16.7188C173.052 16.9896 172.729 17.3646 172.5 17.8438C172.271 18.3125 172.109 18.849 172.016 19.4531C171.932 20.0469 171.891 20.6719 171.891 21.3281V21.7812C171.891 22.4375 171.932 23.0677 172.016 23.6719C172.099 24.276 172.255 24.8125 172.484 25.2812C172.724 25.75 173.052 26.1198 173.469 26.3906C173.885 26.6615 174.427 26.7969 175.094 26.7969ZM192.578 30.3125C191.266 30.3125 190.089 30.1042 189.047 29.6875C188.005 29.2604 187.12 28.6719 186.391 27.9219C185.672 27.1719 185.12 26.3021 184.734 25.3125C184.349 24.3125 184.156 23.25 184.156 22.125V21.5C184.156 20.2188 184.339 19.0469 184.703 17.9844C185.068 16.9219 185.589 16 186.266 15.2188C186.953 14.4375 187.786 13.8385 188.766 13.4219C189.745 12.9948 190.849 12.7812 192.078 12.7812C193.276 12.7812 194.339 12.9792 195.266 13.375C196.193 13.7708 196.969 14.3333 197.594 15.0625C198.229 15.7917 198.708 16.6667 199.031 17.6875C199.354 18.6979 199.516 19.8229 199.516 21.0625V22.9375H186.078V19.9375H195.094V19.5938C195.094 18.9688 194.979 18.4115 194.75 17.9219C194.531 17.4219 194.198 17.026 193.75 16.7344C193.302 16.4427 192.729 16.2969 192.031 16.2969C191.438 16.2969 190.927 16.4271 190.5 16.6875C190.073 16.9479 189.724 17.3125 189.453 17.7812C189.193 18.25 188.995 18.8021 188.859 19.4375C188.734 20.0625 188.672 20.75 188.672 21.5V22.125C188.672 22.8021 188.766 23.4271 188.953 24C189.151 24.5729 189.427 25.0677 189.781 25.4844C190.146 25.901 190.583 26.224 191.094 26.4531C191.615 26.6823 192.203 26.7969 192.859 26.7969C193.672 26.7969 194.427 26.6406 195.125 26.3281C195.833 26.0052 196.443 25.5208 196.953 24.875L199.141 27.25C198.786 27.7604 198.302 28.25 197.688 28.7188C197.083 29.1875 196.354 29.5729 195.5 29.875C194.646 30.1667 193.672 30.3125 192.578 30.3125ZM210.359 13.0938V16.2812H200.516V13.0938H210.359ZM202.953 8.92188H207.453V24.9062C207.453 25.3958 207.516 25.7708 207.641 26.0312C207.776 26.2917 207.974 26.474 208.234 26.5781C208.495 26.6719 208.823 26.7188 209.219 26.7188C209.5 26.7188 209.75 26.7083 209.969 26.6875C210.198 26.6562 210.391 26.625 210.547 26.5938L210.562 29.9062C210.177 30.0312 209.76 30.1302 209.312 30.2031C208.865 30.276 208.37 30.3125 207.828 30.3125C206.839 30.3125 205.974 30.151 205.234 29.8281C204.505 29.4948 203.943 28.9635 203.547 28.2344C203.151 27.5052 202.953 26.5469 202.953 25.3594V8.92188ZM220.703 30.3125C219.391 30.3125 218.214 30.1042 217.172 29.6875C216.13 29.2604 215.245 28.6719 214.516 27.9219C213.797 27.1719 213.245 26.3021 212.859 25.3125C212.474 24.3125 212.281 23.25 212.281 22.125V21.5C212.281 20.2188 212.464 19.0469 212.828 17.9844C213.193 16.9219 213.714 16 214.391 15.2188C215.078 14.4375 215.911 13.8385 216.891 13.4219C217.87 12.9948 218.974 12.7812 220.203 12.7812C221.401 12.7812 222.464 12.9792 223.391 13.375C224.318 13.7708 225.094 14.3333 225.719 15.0625C226.354 15.7917 226.833 16.6667 227.156 17.6875C227.479 18.6979 227.641 19.8229 227.641 21.0625V22.9375H214.203V19.9375H223.219V19.5938C223.219 18.9688 223.104 18.4115 222.875 17.9219C222.656 17.4219 222.323 17.026 221.875 16.7344C221.427 16.4427 220.854 16.2969 220.156 16.2969C219.562 16.2969 219.052 16.4271 218.625 16.6875C218.198 16.9479 217.849 17.3125 217.578 17.7812C217.318 18.25 217.12 18.8021 216.984 19.4375C216.859 20.0625 216.797 20.75 216.797 21.5V22.125C216.797 22.8021 216.891 23.4271 217.078 24C217.276 24.5729 217.552 25.0677 217.906 25.4844C218.271 25.901 218.708 26.224 219.219 26.4531C219.74 26.6823 220.328 26.7969 220.984 26.7969C221.797 26.7969 222.552 26.6406 223.25 26.3281C223.958 26.0052 224.568 25.5208 225.078 24.875L227.266 27.25C226.911 27.7604 226.427 28.25 225.812 28.7188C225.208 29.1875 224.479 29.5729 223.625 29.875C222.771 30.1667 221.797 30.3125 220.703 30.3125ZM234.703 16.7812V30H230.203V13.0938H234.438L234.703 16.7812ZM239.797 12.9844L239.719 17.1562C239.5 17.125 239.234 17.099 238.922 17.0781C238.62 17.0469 238.344 17.0312 238.094 17.0312C237.458 17.0312 236.906 17.1146 236.438 17.2812C235.979 17.4375 235.594 17.6719 235.281 17.9844C234.979 18.2969 234.75 18.6771 234.594 19.125C234.448 19.5729 234.365 20.0833 234.344 20.6562L233.438 20.375C233.438 19.2812 233.547 18.276 233.766 17.3594C233.984 16.4323 234.302 15.625 234.719 14.9375C235.146 14.25 235.667 13.7188 236.281 13.3438C236.896 12.9688 237.599 12.7812 238.391 12.7812C238.641 12.7812 238.896 12.8021 239.156 12.8438C239.417 12.875 239.63 12.9219 239.797 12.9844ZM246.672 13.0938V30H242.156V13.0938H246.672ZM241.875 8.6875C241.875 8.03125 242.104 7.48958 242.562 7.0625C243.021 6.63542 243.635 6.42188 244.406 6.42188C245.167 6.42188 245.776 6.63542 246.234 7.0625C246.703 7.48958 246.938 8.03125 246.938 8.6875C246.938 9.34375 246.703 9.88542 246.234 10.3125C245.776 10.7396 245.167 10.9531 244.406 10.9531C243.635 10.9531 243.021 10.7396 242.562 10.3125C242.104 9.88542 241.875 9.34375 241.875 8.6875ZM259.516 26.1875V18.6562C259.516 18.1146 259.427 17.651 259.25 17.2656C259.073 16.8698 258.797 16.5625 258.422 16.3438C258.057 16.125 257.583 16.0156 257 16.0156C256.5 16.0156 256.068 16.1042 255.703 16.2812C255.339 16.4479 255.057 16.6927 254.859 17.0156C254.661 17.3281 254.562 17.6979 254.562 18.125H250.062C250.062 17.4062 250.229 16.724 250.562 16.0781C250.896 15.4323 251.38 14.8646 252.016 14.375C252.651 13.875 253.406 13.4844 254.281 13.2031C255.167 12.9219 256.156 12.7812 257.25 12.7812C258.562 12.7812 259.729 13 260.75 13.4375C261.771 13.875 262.573 14.5312 263.156 15.4062C263.75 16.2812 264.047 17.375 264.047 18.6875V25.9219C264.047 26.849 264.104 27.6094 264.219 28.2031C264.333 28.7865 264.5 29.2969 264.719 29.7344V30H260.172C259.953 29.5417 259.786 28.9688 259.672 28.2812C259.568 27.5833 259.516 26.8854 259.516 26.1875ZM260.109 19.7031L260.141 22.25H257.625C257.031 22.25 256.516 22.3177 256.078 22.4531C255.641 22.5885 255.281 22.7812 255 23.0312C254.719 23.2708 254.51 23.5521 254.375 23.875C254.25 24.1979 254.188 24.5521 254.188 24.9375C254.188 25.3229 254.276 25.6719 254.453 25.9844C254.63 26.2865 254.885 26.526 255.219 26.7031C255.552 26.8698 255.943 26.9531 256.391 26.9531C257.068 26.9531 257.656 26.8177 258.156 26.5469C258.656 26.276 259.042 25.9427 259.312 25.5469C259.594 25.151 259.74 24.776 259.75 24.4219L260.938 26.3281C260.771 26.7552 260.542 27.1979 260.25 27.6562C259.969 28.1146 259.609 28.5469 259.172 28.9531C258.734 29.349 258.208 29.6771 257.594 29.9375C256.979 30.1875 256.25 30.3125 255.406 30.3125C254.333 30.3125 253.359 30.099 252.484 29.6719C251.62 29.2344 250.932 28.6354 250.422 27.875C249.922 27.1042 249.672 26.2292 249.672 25.25C249.672 24.3646 249.839 23.5781 250.172 22.8906C250.505 22.2031 250.995 21.625 251.641 21.1562C252.297 20.6771 253.115 20.3177 254.094 20.0781C255.073 19.8281 256.208 19.7031 257.5 19.7031H260.109Z" fill="black"/>
<defs>
<clipPath id="clip0_1557_1268">
<rect width="64" height="64" fill="white"/>
</clipPath>
</defs>
</svg>
