<svg width="151" height="102" viewBox="0 0 151 102" fill="none" xmlns="http://www.w3.org/2000/svg">
<g clip-path="url(#clip0_1557_1268)">
<path d="M93.014 9.83486L92.9189 9.86581L92.9498 9.9609L95.0332 16.3609L95.0641 16.456L95.1592 16.425L97.1878 15.7651L97.2829 15.7342L97.252 15.6391L95.1687 9.23858L95.1377 9.14349L95.0426 9.17444L93.014 9.83486Z" fill="black" stroke="black" stroke-width="0.2"/>
<path d="M89.887 17.3026L89.7919 17.3336L89.8229 17.4287L91.9067 23.8287L91.9377 23.9238L92.0328 23.8928L94.0614 23.2319L94.1565 23.2009L94.1256 23.1058L92.0417 16.7063L92.0107 16.6113L91.9157 16.6422L89.887 17.3026Z" fill="black" stroke="black" stroke-width="0.2"/>
<mask id="path-3-outside-1_1557_1268" maskUnits="userSpaceOnUse" x="49.7441" y="-1" width="55" height="66" fill="black">
<rect fill="white" x="49.7441" y="-1" width="55" height="66"/>
<path d="M53.9504 20.5089C53.7254 22.1386 54.2009 23.7875 55.2603 25.0464L56.8004 26.9781V44.8H58.9337V28.6604L60.4749 29.6875C60.8337 29.9266 61.3004 29.9266 61.6592 29.6875L64.267 27.9469L66.8749 29.6854C67.2337 29.9245 67.7004 29.9245 68.0592 29.6854L70.667 27.9469L73.2748 29.6854C73.6337 29.9245 74.1004 29.9245 74.4592 29.6854L77.067 27.9469L79.6748 29.6854C80.0337 29.9245 80.5004 29.9245 80.8592 29.6854L83.467 27.9469L85.6004 29.3688V61.8666H62.1337V64H92.0004C94.9446 63.9963 97.33 61.6109 97.3337 58.6667V26.6667C97.3311 26.4323 97.2503 26.2052 97.1045 26.0214L103.269 9.61096C104.098 7.40628 103.795 4.93544 102.456 2.99742C101.184 1.11722 99.0602 -0.0067404 96.791 3.04179e-05C93.8983 0.0271137 91.3217 1.8344 90.3118 4.54534L88.6394 8.99742L86.667 7.02503V3.20003C86.667 2.61097 86.1894 2.13336 85.6004 2.13336H73.867C73.278 2.13336 72.8004 2.61097 72.8004 3.20003V5.03024C71.5946 3.93753 69.7759 3.87555 68.4983 4.8844V3.20003C68.4983 1.4542 67.0832 0.038572 65.3368 0.038572C63.591 0.038572 62.1754 1.4542 62.1754 3.20003V4.88544C61.5915 4.40159 60.8566 4.13701 60.0983 4.13857C59.2181 4.13649 58.3743 4.49169 57.7603 5.12346C56.4952 6.42711 56.4874 8.49794 57.7421 9.81148L58.7353 10.8365C58.3738 11.0021 58.0457 11.2323 57.7671 11.5156L57.7603 11.5198L57.7499 11.5308C57.5014 11.786 57.2957 12.0797 57.1415 12.4011L55.9259 10.1558L54.0493 11.1714L56.8077 16.2625C56.6842 16.3328 56.5603 16.4011 56.4431 16.4813C56.3993 16.511 56.3608 16.5453 56.3181 16.575L52.1905 12.7714L50.7441 14.3401L54.8441 18.1203C54.3733 18.8406 54.0681 19.6563 53.9504 20.5089ZM76.4748 25.7792L73.867 27.5198L71.2592 25.7813C70.9004 25.5422 70.4337 25.5422 70.0749 25.7813L67.4915 27.5042C67.4853 27.3974 67.467 27.3047 67.467 27.2021C67.4603 24.8578 69.1525 22.8531 71.4644 22.4667C73.7769 22.0797 76.029 23.4245 76.7853 25.6438C76.6754 25.6724 76.5707 25.7177 76.4748 25.7792ZM79.2004 26.8073L79.1801 26.7938C79.0519 24.5516 77.8441 22.511 75.9399 21.3198C74.0363 20.1287 71.6728 19.9349 69.6004 20.8V13.8667H79.2004V26.8073ZM95.2003 58.6667C95.2003 60.4338 93.7675 61.8666 92.0004 61.8666H87.7337V29.3708L89.867 27.9469L92.4748 29.6854C92.8337 29.9245 93.3004 29.9245 93.6592 29.6854L95.2003 28.6604V58.6667ZM92.3087 5.29482C93.004 3.41461 94.7863 2.15784 96.791 2.13336C98.3587 2.13024 99.8248 2.90784 100.702 4.2068C101.644 5.57086 101.857 7.30992 101.272 8.86096L94.667 26.4531L93.067 27.5198L90.4592 25.7813C90.1004 25.5422 89.6337 25.5422 89.2748 25.7813L86.667 27.5198L84.503 26.0771L92.3087 5.29482ZM87.816 11.1906L82.155 26.2594L81.3337 26.8073V13.2417L85.6004 8.97502L87.816 11.1906ZM74.9337 4.26669H84.5337V6.40003H74.9337V4.26669ZM74.3087 8.53336H83.0254L79.8254 11.7334H71.1087L74.3087 8.53336ZM59.2827 6.61982C59.4967 6.39898 59.791 6.27398 60.0983 6.27398C60.4061 6.27451 60.7004 6.39898 60.9144 6.61982L62.4806 8.21982C62.7848 8.53023 63.2467 8.6245 63.6483 8.4594C64.0499 8.29377 64.3113 7.90107 64.3087 7.46669V3.20003C64.2915 2.82138 64.4837 2.46409 64.8087 2.26982C65.1342 2.07503 65.54 2.07503 65.865 2.26982C66.1905 2.46409 66.3827 2.82138 66.365 3.20003V7.46669C66.3655 7.8995 66.6275 8.28909 67.0285 8.45263C67.429 8.61669 67.8889 8.5219 68.1926 8.21357L69.7634 6.61357C70.2134 6.17034 70.9353 6.17034 71.3847 6.61357C71.8483 7.08805 71.8483 7.84534 71.3847 8.31982L68.2426 11.5198L68.2743 11.5521L67.7795 12.0469C67.6936 12.1354 67.6243 12.2386 67.5738 12.3511C67.5587 12.3839 67.5504 12.4172 67.5384 12.4511C67.5066 12.5422 67.4874 12.637 67.4811 12.7328C67.4811 12.7563 67.4681 12.7755 67.4681 12.799V22.2078C67.2254 22.4401 66.9999 22.6896 66.7941 22.9547L64.779 18.6667C64.0353 17.187 62.691 16.0985 61.0884 15.6802C60.7155 15.5839 60.3332 15.5255 59.9483 15.5073L59.6749 15.187C59.4618 14.9427 59.3009 14.7521 59.2749 14.7255C58.9993 14.437 58.8801 14.0328 58.9551 13.6406C58.9947 13.4177 59.0973 13.2115 59.2504 13.0453L59.2697 13.0271L59.2962 12.9985C59.6827 12.6198 60.2811 12.5641 60.7311 12.8641C61.1837 13.1667 61.791 13.0797 62.141 12.663C62.491 12.2459 62.4707 11.6328 62.0941 11.2396L59.2749 8.32971C58.817 7.85055 58.8207 7.09482 59.2827 6.61982ZM56.0644 20.8C56.2035 19.7662 56.7759 18.8401 57.6389 18.2537C58.4947 17.675 59.5577 17.4917 60.5582 17.7505C61.5582 18.0099 62.3988 18.6865 62.8655 19.6083L65.5842 25.3995C65.517 25.649 65.4639 25.9021 65.4254 26.1578L64.8634 25.7823C64.5051 25.5432 64.0379 25.5432 63.6795 25.7823L61.067 27.5198L58.7014 25.9412L58.4728 25.6547L61.2228 23.5287L59.917 21.8412L57.1441 23.986L56.9072 23.6906C56.2285 22.8906 55.9223 21.8396 56.0644 20.8Z"/>
</mask>
<path d="M53.9504 20.5089C53.7254 22.1386 54.2009 23.7875 55.2603 25.0464L56.8004 26.9781V44.8H58.9337V28.6604L60.4749 29.6875C60.8337 29.9266 61.3004 29.9266 61.6592 29.6875L64.267 27.9469L66.8749 29.6854C67.2337 29.9245 67.7004 29.9245 68.0592 29.6854L70.667 27.9469L73.2748 29.6854C73.6337 29.9245 74.1004 29.9245 74.4592 29.6854L77.067 27.9469L79.6748 29.6854C80.0337 29.9245 80.5004 29.9245 80.8592 29.6854L83.467 27.9469L85.6004 29.3688V61.8666H62.1337V64H92.0004C94.9446 63.9963 97.33 61.6109 97.3337 58.6667V26.6667C97.3311 26.4323 97.2503 26.2052 97.1045 26.0214L103.269 9.61096C104.098 7.40628 103.795 4.93544 102.456 2.99742C101.184 1.11722 99.0602 -0.0067404 96.791 3.04179e-05C93.8983 0.0271137 91.3217 1.8344 90.3118 4.54534L88.6394 8.99742L86.667 7.02503V3.20003C86.667 2.61097 86.1894 2.13336 85.6004 2.13336H73.867C73.278 2.13336 72.8004 2.61097 72.8004 3.20003V5.03024C71.5946 3.93753 69.7759 3.87555 68.4983 4.8844V3.20003C68.4983 1.4542 67.0832 0.038572 65.3368 0.038572C63.591 0.038572 62.1754 1.4542 62.1754 3.20003V4.88544C61.5915 4.40159 60.8566 4.13701 60.0983 4.13857C59.2181 4.13649 58.3743 4.49169 57.7603 5.12346C56.4952 6.42711 56.4874 8.49794 57.7421 9.81148L58.7353 10.8365C58.3738 11.0021 58.0457 11.2323 57.7671 11.5156L57.7603 11.5198L57.7499 11.5308C57.5014 11.786 57.2957 12.0797 57.1415 12.4011L55.9259 10.1558L54.0493 11.1714L56.8077 16.2625C56.6842 16.3328 56.5603 16.4011 56.4431 16.4813C56.3993 16.511 56.3608 16.5453 56.3181 16.575L52.1905 12.7714L50.7441 14.3401L54.8441 18.1203C54.3733 18.8406 54.0681 19.6563 53.9504 20.5089ZM76.4748 25.7792L73.867 27.5198L71.2592 25.7813C70.9004 25.5422 70.4337 25.5422 70.0749 25.7813L67.4915 27.5042C67.4853 27.3974 67.467 27.3047 67.467 27.2021C67.4603 24.8578 69.1525 22.8531 71.4644 22.4667C73.7769 22.0797 76.029 23.4245 76.7853 25.6438C76.6754 25.6724 76.5707 25.7177 76.4748 25.7792ZM79.2004 26.8073L79.1801 26.7938C79.0519 24.5516 77.8441 22.511 75.9399 21.3198C74.0363 20.1287 71.6728 19.9349 69.6004 20.8V13.8667H79.2004V26.8073ZM95.2003 58.6667C95.2003 60.4338 93.7675 61.8666 92.0004 61.8666H87.7337V29.3708L89.867 27.9469L92.4748 29.6854C92.8337 29.9245 93.3004 29.9245 93.6592 29.6854L95.2003 28.6604V58.6667ZM92.3087 5.29482C93.004 3.41461 94.7863 2.15784 96.791 2.13336C98.3587 2.13024 99.8248 2.90784 100.702 4.2068C101.644 5.57086 101.857 7.30992 101.272 8.86096L94.667 26.4531L93.067 27.5198L90.4592 25.7813C90.1004 25.5422 89.6337 25.5422 89.2748 25.7813L86.667 27.5198L84.503 26.0771L92.3087 5.29482ZM87.816 11.1906L82.155 26.2594L81.3337 26.8073V13.2417L85.6004 8.97502L87.816 11.1906ZM74.9337 4.26669H84.5337V6.40003H74.9337V4.26669ZM74.3087 8.53336H83.0254L79.8254 11.7334H71.1087L74.3087 8.53336ZM59.2827 6.61982C59.4967 6.39898 59.791 6.27398 60.0983 6.27398C60.4061 6.27451 60.7004 6.39898 60.9144 6.61982L62.4806 8.21982C62.7848 8.53023 63.2467 8.6245 63.6483 8.4594C64.0499 8.29377 64.3113 7.90107 64.3087 7.46669V3.20003C64.2915 2.82138 64.4837 2.46409 64.8087 2.26982C65.1342 2.07503 65.54 2.07503 65.865 2.26982C66.1905 2.46409 66.3827 2.82138 66.365 3.20003V7.46669C66.3655 7.8995 66.6275 8.28909 67.0285 8.45263C67.429 8.61669 67.8889 8.5219 68.1926 8.21357L69.7634 6.61357C70.2134 6.17034 70.9353 6.17034 71.3847 6.61357C71.8483 7.08805 71.8483 7.84534 71.3847 8.31982L68.2426 11.5198L68.2743 11.5521L67.7795 12.0469C67.6936 12.1354 67.6243 12.2386 67.5738 12.3511C67.5587 12.3839 67.5504 12.4172 67.5384 12.4511C67.5066 12.5422 67.4874 12.637 67.4811 12.7328C67.4811 12.7563 67.4681 12.7755 67.4681 12.799V22.2078C67.2254 22.4401 66.9999 22.6896 66.7941 22.9547L64.779 18.6667C64.0353 17.187 62.691 16.0985 61.0884 15.6802C60.7155 15.5839 60.3332 15.5255 59.9483 15.5073L59.6749 15.187C59.4618 14.9427 59.3009 14.7521 59.2749 14.7255C58.9993 14.437 58.8801 14.0328 58.9551 13.6406C58.9947 13.4177 59.0973 13.2115 59.2504 13.0453L59.2697 13.0271L59.2962 12.9985C59.6827 12.6198 60.2811 12.5641 60.7311 12.8641C61.1837 13.1667 61.791 13.0797 62.141 12.663C62.491 12.2459 62.4707 11.6328 62.0941 11.2396L59.2749 8.32971C58.817 7.85055 58.8207 7.09482 59.2827 6.61982ZM56.0644 20.8C56.2035 19.7662 56.7759 18.8401 57.6389 18.2537C58.4947 17.675 59.5577 17.4917 60.5582 17.7505C61.5582 18.0099 62.3988 18.6865 62.8655 19.6083L65.5842 25.3995C65.517 25.649 65.4639 25.9021 65.4254 26.1578L64.8634 25.7823C64.5051 25.5432 64.0379 25.5432 63.6795 25.7823L61.067 27.5198L58.7014 25.9412L58.4728 25.6547L61.2228 23.5287L59.917 21.8412L57.1441 23.986L56.9072 23.6906C56.2285 22.8906 55.9223 21.8396 56.0644 20.8Z" fill="black"/>
<path d="M53.9504 20.5089C53.7254 22.1386 54.2009 23.7875 55.2603 25.0464L56.8004 26.9781V44.8H58.9337V28.6604L60.4749 29.6875C60.8337 29.9266 61.3004 29.9266 61.6592 29.6875L64.267 27.9469L66.8749 29.6854C67.2337 29.9245 67.7004 29.9245 68.0592 29.6854L70.667 27.9469L73.2748 29.6854C73.6337 29.9245 74.1004 29.9245 74.4592 29.6854L77.067 27.9469L79.6748 29.6854C80.0337 29.9245 80.5004 29.9245 80.8592 29.6854L83.467 27.9469L85.6004 29.3688V61.8666H62.1337V64H92.0004C94.9446 63.9963 97.33 61.6109 97.3337 58.6667V26.6667C97.3311 26.4323 97.2503 26.2052 97.1045 26.0214L103.269 9.61096C104.098 7.40628 103.795 4.93544 102.456 2.99742C101.184 1.11722 99.0602 -0.0067404 96.791 3.04179e-05C93.8983 0.0271137 91.3217 1.8344 90.3118 4.54534L88.6394 8.99742L86.667 7.02503V3.20003C86.667 2.61097 86.1894 2.13336 85.6004 2.13336H73.867C73.278 2.13336 72.8004 2.61097 72.8004 3.20003V5.03024C71.5946 3.93753 69.7759 3.87555 68.4983 4.8844V3.20003C68.4983 1.4542 67.0832 0.038572 65.3368 0.038572C63.591 0.038572 62.1754 1.4542 62.1754 3.20003V4.88544C61.5915 4.40159 60.8566 4.13701 60.0983 4.13857C59.2181 4.13649 58.3743 4.49169 57.7603 5.12346C56.4952 6.42711 56.4874 8.49794 57.7421 9.81148L58.7353 10.8365C58.3738 11.0021 58.0457 11.2323 57.7671 11.5156L57.7603 11.5198L57.7499 11.5308C57.5014 11.786 57.2957 12.0797 57.1415 12.4011L55.9259 10.1558L54.0493 11.1714L56.8077 16.2625C56.6842 16.3328 56.5603 16.4011 56.4431 16.4813C56.3993 16.511 56.3608 16.5453 56.3181 16.575L52.1905 12.7714L50.7441 14.3401L54.8441 18.1203C54.3733 18.8406 54.0681 19.6563 53.9504 20.5089ZM76.4748 25.7792L73.867 27.5198L71.2592 25.7813C70.9004 25.5422 70.4337 25.5422 70.0749 25.7813L67.4915 27.5042C67.4853 27.3974 67.467 27.3047 67.467 27.2021C67.4603 24.8578 69.1525 22.8531 71.4644 22.4667C73.7769 22.0797 76.029 23.4245 76.7853 25.6438C76.6754 25.6724 76.5707 25.7177 76.4748 25.7792ZM79.2004 26.8073L79.1801 26.7938C79.0519 24.5516 77.8441 22.511 75.9399 21.3198C74.0363 20.1287 71.6728 19.9349 69.6004 20.8V13.8667H79.2004V26.8073ZM95.2003 58.6667C95.2003 60.4338 93.7675 61.8666 92.0004 61.8666H87.7337V29.3708L89.867 27.9469L92.4748 29.6854C92.8337 29.9245 93.3004 29.9245 93.6592 29.6854L95.2003 28.6604V58.6667ZM92.3087 5.29482C93.004 3.41461 94.7863 2.15784 96.791 2.13336C98.3587 2.13024 99.8248 2.90784 100.702 4.2068C101.644 5.57086 101.857 7.30992 101.272 8.86096L94.667 26.4531L93.067 27.5198L90.4592 25.7813C90.1004 25.5422 89.6337 25.5422 89.2748 25.7813L86.667 27.5198L84.503 26.0771L92.3087 5.29482ZM87.816 11.1906L82.155 26.2594L81.3337 26.8073V13.2417L85.6004 8.97502L87.816 11.1906ZM74.9337 4.26669H84.5337V6.40003H74.9337V4.26669ZM74.3087 8.53336H83.0254L79.8254 11.7334H71.1087L74.3087 8.53336ZM59.2827 6.61982C59.4967 6.39898 59.791 6.27398 60.0983 6.27398C60.4061 6.27451 60.7004 6.39898 60.9144 6.61982L62.4806 8.21982C62.7848 8.53023 63.2467 8.6245 63.6483 8.4594C64.0499 8.29377 64.3113 7.90107 64.3087 7.46669V3.20003C64.2915 2.82138 64.4837 2.46409 64.8087 2.26982C65.1342 2.07503 65.54 2.07503 65.865 2.26982C66.1905 2.46409 66.3827 2.82138 66.365 3.20003V7.46669C66.3655 7.8995 66.6275 8.28909 67.0285 8.45263C67.429 8.61669 67.8889 8.5219 68.1926 8.21357L69.7634 6.61357C70.2134 6.17034 70.9353 6.17034 71.3847 6.61357C71.8483 7.08805 71.8483 7.84534 71.3847 8.31982L68.2426 11.5198L68.2743 11.5521L67.7795 12.0469C67.6936 12.1354 67.6243 12.2386 67.5738 12.3511C67.5587 12.3839 67.5504 12.4172 67.5384 12.4511C67.5066 12.5422 67.4874 12.637 67.4811 12.7328C67.4811 12.7563 67.4681 12.7755 67.4681 12.799V22.2078C67.2254 22.4401 66.9999 22.6896 66.7941 22.9547L64.779 18.6667C64.0353 17.187 62.691 16.0985 61.0884 15.6802C60.7155 15.5839 60.3332 15.5255 59.9483 15.5073L59.6749 15.187C59.4618 14.9427 59.3009 14.7521 59.2749 14.7255C58.9993 14.437 58.8801 14.0328 58.9551 13.6406C58.9947 13.4177 59.0973 13.2115 59.2504 13.0453L59.2697 13.0271L59.2962 12.9985C59.6827 12.6198 60.2811 12.5641 60.7311 12.8641C61.1837 13.1667 61.791 13.0797 62.141 12.663C62.491 12.2459 62.4707 11.6328 62.0941 11.2396L59.2749 8.32971C58.817 7.85055 58.8207 7.09482 59.2827 6.61982ZM56.0644 20.8C56.2035 19.7662 56.7759 18.8401 57.6389 18.2537C58.4947 17.675 59.5577 17.4917 60.5582 17.7505C61.5582 18.0099 62.3988 18.6865 62.8655 19.6083L65.5842 25.3995C65.517 25.649 65.4639 25.9021 65.4254 26.1578L64.8634 25.7823C64.5051 25.5432 64.0379 25.5432 63.6795 25.7823L61.067 27.5198L58.7014 25.9412L58.4728 25.6547L61.2228 23.5287L59.917 21.8412L57.1441 23.986L56.9072 23.6906C56.2285 22.8906 55.9223 21.8396 56.0644 20.8Z" stroke="black" stroke-width="0.4" mask="url(#path-3-outside-1_1557_1268)"/>
<path d="M54.7667 47.609C55.6273 47.1044 56.6075 46.8367 57.607 46.8337L57.6074 46.8337C60.75 46.8374 63.2963 49.3836 63.3 52.5262V52.5265C63.2958 55.3419 62.6401 58.1181 61.3843 60.6381L61.0125 61.3843L54.7667 47.609ZM54.7667 47.609V46.9337C54.7667 44.5222 52.8115 42.567 50.4 42.567H50.3V42.667V44.8003V44.9003H50.4C51.5229 44.9003 52.4333 45.8108 52.4333 46.9337V47.609C51.5727 47.1044 50.5925 46.8367 49.593 46.8337L49.5926 46.8337C46.45 46.8374 43.9037 49.3836 43.9 52.5262L43.9 52.5265C43.9037 55.3424 44.5593 58.1196 45.8157 60.6402L45.8158 60.6404L46.188 61.3843C46.188 61.3843 46.1881 61.3844 46.1881 61.3845C47.0155 63.0534 48.7201 64.1067 50.5826 64.1003M54.7667 47.609L61.0124 61.3845C60.1845 63.0534 58.4804 64.1067 56.6174 64.1003M50.5826 64.1003C50.5826 64.1003 50.5825 64.1003 50.5824 64.1003L50.5823 64.0003L50.5826 64.1003ZM50.5826 64.1003C51.3454 64.0992 52.097 63.9216 52.7794 63.582L52.7796 63.5819L53.6 63.1715M53.6 63.1715L54.4214 63.5819L54.4216 63.582C55.1035 63.9216 55.8551 64.0992 56.6174 64.1003M53.6 63.1715L53.5553 63.1491L53.6 63.0597L53.6447 63.1491L53.6 63.1715ZM56.6174 64.1003C56.6174 64.1003 56.6175 64.1003 56.6176 64.1003L56.6177 64.0003L56.6174 64.1003ZM51.9678 50.1512L51.9676 50.151C51.339 49.5189 50.4839 49.1645 49.593 49.167L49.5927 49.067L49.5928 49.167C47.7386 49.1695 46.2359 50.6722 46.2333 52.5264C46.2365 54.9796 46.8079 57.3987 47.903 59.5942L47.903 59.5942L48.2749 60.3406L48.275 60.3408C48.7096 61.217 49.6045 61.77 50.582 61.767L50.5822 61.767C50.9828 61.7665 51.3779 61.6732 51.7365 61.4947L51.9678 50.1512ZM51.9678 50.1512L52.7751 50.9585L52.7752 50.9586C53.2309 51.4137 53.9691 51.4137 54.4248 50.9586L54.4249 50.9585L55.2322 50.1512C56.1931 49.1902 57.6376 48.903 58.893 49.4229C60.1483 49.9428 60.9666 51.1678 60.9667 52.5262C60.9641 54.9806 60.3927 57.4007 59.297 59.5973L59.2969 59.5974L58.9251 60.3443C58.4894 61.219 57.5951 61.7705 56.6181 61.767L56.6178 61.767C56.2177 61.7665 55.823 61.6732 55.4644 61.4946L54.1218 60.8228L54.1217 60.8228C53.7931 60.6588 53.4069 60.6587 53.0787 60.8228L53.0787 60.8229L51.7367 61.4946L51.9678 50.1512Z" fill="black" stroke="black" stroke-width="0.2"/>
</g>
<path d="M20.2969 82.1094V91.125C19.9427 91.5521 19.3958 92.0156 18.6562 92.5156C17.9167 93.0052 16.9635 93.4271 15.7969 93.7812C14.6302 94.1354 13.2188 94.3125 11.5625 94.3125C10.0938 94.3125 8.75521 94.0729 7.54688 93.5938C6.33854 93.1042 5.29688 92.3906 4.42188 91.4531C3.55729 90.5156 2.89062 89.3698 2.42188 88.0156C1.95312 86.651 1.71875 85.0938 1.71875 83.3438V81.9219C1.71875 80.1719 1.94271 78.6146 2.39062 77.25C2.84896 75.8854 3.5 74.7344 4.34375 73.7969C5.1875 72.8594 6.19271 72.1458 7.35938 71.6562C8.52604 71.1667 9.82292 70.9219 11.25 70.9219C13.2292 70.9219 14.8542 71.2448 16.125 71.8906C17.3958 72.526 18.3646 73.4115 19.0312 74.5469C19.7083 75.6719 20.125 76.9635 20.2812 78.4219H15.7344C15.6198 77.651 15.401 76.9792 15.0781 76.4062C14.7552 75.8333 14.2917 75.3854 13.6875 75.0625C13.0938 74.7396 12.3229 74.5781 11.375 74.5781C10.5938 74.5781 9.89583 74.7396 9.28125 75.0625C8.67708 75.375 8.16667 75.8385 7.75 76.4531C7.33333 77.0677 7.01562 77.8281 6.79688 78.7344C6.57812 79.6406 6.46875 80.6927 6.46875 81.8906V83.3438C6.46875 84.5312 6.58333 85.5833 6.8125 86.5C7.04167 87.4062 7.38021 88.1719 7.82812 88.7969C8.28646 89.4115 8.84896 89.875 9.51562 90.1875C10.1823 90.5 10.9583 90.6562 11.8438 90.6562C12.5833 90.6562 13.1979 90.5938 13.6875 90.4688C14.1875 90.3438 14.5885 90.1927 14.8906 90.0156C15.2031 89.8281 15.4427 89.651 15.6094 89.4844V85.4531H11.3281V82.1094H20.2969ZM28.2969 80.7812V94H23.7969V77.0938H28.0312L28.2969 80.7812ZM33.3906 76.9844L33.3125 81.1562C33.0938 81.125 32.8281 81.099 32.5156 81.0781C32.2135 81.0469 31.9375 81.0312 31.6875 81.0312C31.0521 81.0312 30.5 81.1146 30.0312 81.2812C29.5729 81.4375 29.1875 81.6719 28.875 81.9844C28.5729 82.2969 28.3438 82.6771 28.1875 83.125C28.0417 83.5729 27.9583 84.0833 27.9375 84.6562L27.0312 84.375C27.0312 83.2812 27.1406 82.276 27.3594 81.3594C27.5781 80.4323 27.8958 79.625 28.3125 78.9375C28.7396 78.25 29.2604 77.7188 29.875 77.3438C30.4896 76.9688 31.1927 76.7812 31.9844 76.7812C32.2344 76.7812 32.4896 76.8021 32.75 76.8438C33.0104 76.875 33.224 76.9219 33.3906 76.9844ZM34.3281 85.7188V85.3906C34.3281 84.151 34.5052 83.0104 34.8594 81.9688C35.2135 80.9167 35.7292 80.0052 36.4062 79.2344C37.0833 78.4635 37.9167 77.8646 38.9062 77.4375C39.8958 77 41.0312 76.7812 42.3125 76.7812C43.5938 76.7812 44.7344 77 45.7344 77.4375C46.7344 77.8646 47.5729 78.4635 48.25 79.2344C48.9375 80.0052 49.4583 80.9167 49.8125 81.9688C50.1667 83.0104 50.3438 84.151 50.3438 85.3906V85.7188C50.3438 86.9479 50.1667 88.0885 49.8125 89.1406C49.4583 90.1823 48.9375 91.0938 48.25 91.875C47.5729 92.6458 46.7396 93.2448 45.75 93.6719C44.7604 94.099 43.625 94.3125 42.3438 94.3125C41.0625 94.3125 39.9219 94.099 38.9219 93.6719C37.9323 93.2448 37.0938 92.6458 36.4062 91.875C35.7292 91.0938 35.2135 90.1823 34.8594 89.1406C34.5052 88.0885 34.3281 86.9479 34.3281 85.7188ZM38.8281 85.3906V85.7188C38.8281 86.4271 38.8906 87.0885 39.0156 87.7031C39.1406 88.3177 39.3385 88.8594 39.6094 89.3281C39.8906 89.7865 40.2552 90.1458 40.7031 90.4062C41.151 90.6667 41.6979 90.7969 42.3438 90.7969C42.9688 90.7969 43.5052 90.6667 43.9531 90.4062C44.401 90.1458 44.7604 89.7865 45.0312 89.3281C45.3021 88.8594 45.5 88.3177 45.625 87.7031C45.7604 87.0885 45.8281 86.4271 45.8281 85.7188V85.3906C45.8281 84.7031 45.7604 84.0573 45.625 83.4531C45.5 82.8385 45.2969 82.2969 45.0156 81.8281C44.7448 81.349 44.3854 80.974 43.9375 80.7031C43.4896 80.4323 42.9479 80.2969 42.3125 80.2969C41.6771 80.2969 41.1354 80.4323 40.6875 80.7031C40.25 80.974 39.8906 81.349 39.6094 81.8281C39.3385 82.2969 39.1406 82.8385 39.0156 83.4531C38.8906 84.0573 38.8281 84.7031 38.8281 85.3906ZM60.0938 90.7969C60.6458 90.7969 61.1354 90.6927 61.5625 90.4844C61.9896 90.2656 62.3229 89.9635 62.5625 89.5781C62.8125 89.1823 62.9427 88.7188 62.9531 88.1875H67.1875C67.1771 89.375 66.8594 90.4323 66.2344 91.3594C65.6094 92.276 64.7708 93 63.7188 93.5312C62.6667 94.0521 61.4896 94.3125 60.1875 94.3125C58.875 94.3125 57.7292 94.0938 56.75 93.6562C55.7812 93.2188 54.974 92.6146 54.3281 91.8438C53.6823 91.0625 53.1979 90.1562 52.875 89.125C52.5521 88.0833 52.3906 86.9688 52.3906 85.7812V85.3281C52.3906 84.1302 52.5521 83.0156 52.875 81.9844C53.1979 80.9427 53.6823 80.0365 54.3281 79.2656C54.974 78.4844 55.7812 77.875 56.75 77.4375C57.7188 77 58.8542 76.7812 60.1562 76.7812C61.5417 76.7812 62.7552 77.0469 63.7969 77.5781C64.849 78.1094 65.6719 78.8698 66.2656 79.8594C66.8698 80.8385 67.1771 82 67.1875 83.3438H62.9531C62.9427 82.7812 62.8229 82.2708 62.5938 81.8125C62.375 81.3542 62.0521 80.9896 61.625 80.7188C61.2083 80.4375 60.6927 80.2969 60.0781 80.2969C59.4219 80.2969 58.8854 80.4375 58.4688 80.7188C58.0521 80.9896 57.7292 81.3646 57.5 81.8438C57.2708 82.3125 57.1094 82.849 57.0156 83.4531C56.9323 84.0469 56.8906 84.6719 56.8906 85.3281V85.7812C56.8906 86.4375 56.9323 87.0677 57.0156 87.6719C57.099 88.276 57.2552 88.8125 57.4844 89.2812C57.724 89.75 58.0521 90.1198 58.4688 90.3906C58.8854 90.6615 59.4271 90.7969 60.0938 90.7969ZM77.5781 94.3125C76.2656 94.3125 75.0885 94.1042 74.0469 93.6875C73.0052 93.2604 72.1198 92.6719 71.3906 91.9219C70.6719 91.1719 70.1198 90.3021 69.7344 89.3125C69.349 88.3125 69.1562 87.25 69.1562 86.125V85.5C69.1562 84.2188 69.3385 83.0469 69.7031 81.9844C70.0677 80.9219 70.5885 80 71.2656 79.2188C71.9531 78.4375 72.7865 77.8385 73.7656 77.4219C74.7448 76.9948 75.849 76.7812 77.0781 76.7812C78.276 76.7812 79.3385 76.9792 80.2656 77.375C81.1927 77.7708 81.9688 78.3333 82.5938 79.0625C83.2292 79.7917 83.7083 80.6667 84.0312 81.6875C84.3542 82.6979 84.5156 83.8229 84.5156 85.0625V86.9375H71.0781V83.9375H80.0938V83.5938C80.0938 82.9688 79.9792 82.4115 79.75 81.9219C79.5312 81.4219 79.1979 81.026 78.75 80.7344C78.3021 80.4427 77.7292 80.2969 77.0312 80.2969C76.4375 80.2969 75.9271 80.4271 75.5 80.6875C75.0729 80.9479 74.724 81.3125 74.4531 81.7812C74.1927 82.25 73.9948 82.8021 73.8594 83.4375C73.7344 84.0625 73.6719 84.75 73.6719 85.5V86.125C73.6719 86.8021 73.7656 87.4271 73.9531 88C74.151 88.5729 74.4271 89.0677 74.7812 89.4844C75.1458 89.901 75.5833 90.224 76.0938 90.4531C76.6146 90.6823 77.2031 90.7969 77.8594 90.7969C78.6719 90.7969 79.4271 90.6406 80.125 90.3281C80.8333 90.0052 81.4427 89.5208 81.9531 88.875L84.1406 91.25C83.7865 91.7604 83.3021 92.25 82.6875 92.7188C82.0833 93.1875 81.3542 93.5729 80.5 93.875C79.6458 94.1667 78.6719 94.3125 77.5781 94.3125ZM95.3594 77.0938V80.2812H85.5156V77.0938H95.3594ZM87.9531 72.9219H92.4531V88.9062C92.4531 89.3958 92.5156 89.7708 92.6406 90.0312C92.776 90.2917 92.974 90.474 93.2344 90.5781C93.4948 90.6719 93.8229 90.7188 94.2188 90.7188C94.5 90.7188 94.75 90.7083 94.9688 90.6875C95.1979 90.6562 95.3906 90.625 95.5469 90.5938L95.5625 93.9062C95.1771 94.0312 94.7604 94.1302 94.3125 94.2031C93.8646 94.276 93.3698 94.3125 92.8281 94.3125C91.8385 94.3125 90.974 94.151 90.2344 93.8281C89.5052 93.4948 88.9427 92.9635 88.5469 92.2344C88.151 91.5052 87.9531 90.5469 87.9531 89.3594V72.9219ZM105.703 94.3125C104.391 94.3125 103.214 94.1042 102.172 93.6875C101.13 93.2604 100.245 92.6719 99.5156 91.9219C98.7969 91.1719 98.2448 90.3021 97.8594 89.3125C97.474 88.3125 97.2812 87.25 97.2812 86.125V85.5C97.2812 84.2188 97.4635 83.0469 97.8281 81.9844C98.1927 80.9219 98.7135 80 99.3906 79.2188C100.078 78.4375 100.911 77.8385 101.891 77.4219C102.87 76.9948 103.974 76.7812 105.203 76.7812C106.401 76.7812 107.464 76.9792 108.391 77.375C109.318 77.7708 110.094 78.3333 110.719 79.0625C111.354 79.7917 111.833 80.6667 112.156 81.6875C112.479 82.6979 112.641 83.8229 112.641 85.0625V86.9375H99.2031V83.9375H108.219V83.5938C108.219 82.9688 108.104 82.4115 107.875 81.9219C107.656 81.4219 107.323 81.026 106.875 80.7344C106.427 80.4427 105.854 80.2969 105.156 80.2969C104.562 80.2969 104.052 80.4271 103.625 80.6875C103.198 80.9479 102.849 81.3125 102.578 81.7812C102.318 82.25 102.12 82.8021 101.984 83.4375C101.859 84.0625 101.797 84.75 101.797 85.5V86.125C101.797 86.8021 101.891 87.4271 102.078 88C102.276 88.5729 102.552 89.0677 102.906 89.4844C103.271 89.901 103.708 90.224 104.219 90.4531C104.74 90.6823 105.328 90.7969 105.984 90.7969C106.797 90.7969 107.552 90.6406 108.25 90.3281C108.958 90.0052 109.568 89.5208 110.078 88.875L112.266 91.25C111.911 91.7604 111.427 92.25 110.812 92.7188C110.208 93.1875 109.479 93.5729 108.625 93.875C107.771 94.1667 106.797 94.3125 105.703 94.3125ZM119.703 80.7812V94H115.203V77.0938H119.438L119.703 80.7812ZM124.797 76.9844L124.719 81.1562C124.5 81.125 124.234 81.099 123.922 81.0781C123.62 81.0469 123.344 81.0312 123.094 81.0312C122.458 81.0312 121.906 81.1146 121.438 81.2812C120.979 81.4375 120.594 81.6719 120.281 81.9844C119.979 82.2969 119.75 82.6771 119.594 83.125C119.448 83.5729 119.365 84.0833 119.344 84.6562L118.438 84.375C118.438 83.2812 118.547 82.276 118.766 81.3594C118.984 80.4323 119.302 79.625 119.719 78.9375C120.146 78.25 120.667 77.7188 121.281 77.3438C121.896 76.9688 122.599 76.7812 123.391 76.7812C123.641 76.7812 123.896 76.8021 124.156 76.8438C124.417 76.875 124.63 76.9219 124.797 76.9844ZM131.672 77.0938V94H127.156V77.0938H131.672ZM126.875 72.6875C126.875 72.0312 127.104 71.4896 127.562 71.0625C128.021 70.6354 128.635 70.4219 129.406 70.4219C130.167 70.4219 130.776 70.6354 131.234 71.0625C131.703 71.4896 131.938 72.0312 131.938 72.6875C131.938 73.3438 131.703 73.8854 131.234 74.3125C130.776 74.7396 130.167 74.9531 129.406 74.9531C128.635 74.9531 128.021 74.7396 127.562 74.3125C127.104 73.8854 126.875 73.3438 126.875 72.6875ZM144.516 90.1875V82.6562C144.516 82.1146 144.427 81.651 144.25 81.2656C144.073 80.8698 143.797 80.5625 143.422 80.3438C143.057 80.125 142.583 80.0156 142 80.0156C141.5 80.0156 141.068 80.1042 140.703 80.2812C140.339 80.4479 140.057 80.6927 139.859 81.0156C139.661 81.3281 139.562 81.6979 139.562 82.125H135.062C135.062 81.4062 135.229 80.724 135.562 80.0781C135.896 79.4323 136.38 78.8646 137.016 78.375C137.651 77.875 138.406 77.4844 139.281 77.2031C140.167 76.9219 141.156 76.7812 142.25 76.7812C143.562 76.7812 144.729 77 145.75 77.4375C146.771 77.875 147.573 78.5312 148.156 79.4062C148.75 80.2812 149.047 81.375 149.047 82.6875V89.9219C149.047 90.849 149.104 91.6094 149.219 92.2031C149.333 92.7865 149.5 93.2969 149.719 93.7344V94H145.172C144.953 93.5417 144.786 92.9688 144.672 92.2812C144.568 91.5833 144.516 90.8854 144.516 90.1875ZM145.109 83.7031L145.141 86.25H142.625C142.031 86.25 141.516 86.3177 141.078 86.4531C140.641 86.5885 140.281 86.7812 140 87.0312C139.719 87.2708 139.51 87.5521 139.375 87.875C139.25 88.1979 139.188 88.5521 139.188 88.9375C139.188 89.3229 139.276 89.6719 139.453 89.9844C139.63 90.2865 139.885 90.526 140.219 90.7031C140.552 90.8698 140.943 90.9531 141.391 90.9531C142.068 90.9531 142.656 90.8177 143.156 90.5469C143.656 90.276 144.042 89.9427 144.312 89.5469C144.594 89.151 144.74 88.776 144.75 88.4219L145.938 90.3281C145.771 90.7552 145.542 91.1979 145.25 91.6562C144.969 92.1146 144.609 92.5469 144.172 92.9531C143.734 93.349 143.208 93.6771 142.594 93.9375C141.979 94.1875 141.25 94.3125 140.406 94.3125C139.333 94.3125 138.359 94.099 137.484 93.6719C136.62 93.2344 135.932 92.6354 135.422 91.875C134.922 91.1042 134.672 90.2292 134.672 89.25C134.672 88.3646 134.839 87.5781 135.172 86.8906C135.505 86.2031 135.995 85.625 136.641 85.1562C137.297 84.6771 138.115 84.3177 139.094 84.0781C140.073 83.8281 141.208 83.7031 142.5 83.7031H145.109Z" fill="black"/>
<defs>
<clipPath id="clip0_1557_1268">
<rect width="64" height="64" fill="white" transform="translate(44)"/>
</clipPath>
</defs>
</svg>
