<svg width="24" height="24" viewBox="0 0 24 24" fill="none" xmlns="http://www.w3.org/2000/svg">
<path d="M20.94 11C20.7135 8.97212 19.8042 7.08154 18.3613 5.63869C16.9185 4.19585 15.0279 3.28651 13 3.06V1H11V3.06C9.87 3.18 8.81 3.52 7.84 4.03L9.34 5.53C10.4028 5.09207 11.5571 4.92279 12.7009 5.03714C13.8446 5.15149 14.9426 5.54593 15.8976 6.18559C16.8527 6.82525 17.6353 7.69041 18.1765 8.70455C18.7176 9.71868 19.0004 10.8505 19 12C19 12.94 18.81 13.84 18.48 14.65L19.98 16.15C20.48 15.19 20.82 14.13 20.95 13H23V11H20.94V11ZM3 4.27L5.04 6.31C3.93813 7.64762 3.25006 9.27743 3.06 11H1V13H3.06C3.28651 15.0279 4.19585 16.9185 5.63869 18.3613C7.08154 19.8042 8.97212 20.7135 11 20.94V23H13V20.94C14.77 20.74 16.38 20.03 17.69 18.96L19.73 21L21 19.73L4.27 3L3 4.27ZM16.27 17.54C14.9238 18.5767 13.2463 19.0879 11.5507 18.9782C9.85511 18.8686 8.25742 18.1455 7.05596 16.944C5.8545 15.7426 5.13143 14.1449 5.02176 12.4493C4.91209 10.7537 5.42333 9.07622 6.46 7.73L16.27 17.54Z" fill="#AAAAAA"/>
</svg>
