<svg width="48" height="48" viewBox="0 0 48 48" fill="none" xmlns="http://www.w3.org/2000/svg">
<path d="M44.9587 13C44.9587 10.0826 43.8461 7.28473 41.8657 5.22183C39.8853 3.15893 37.1994 2 34.3987 2C31.598 2 28.912 3.15893 26.9316 5.22183C24.9512 7.28473 23.8387 10.0826 23.8387 13C23.8387 15.9174 24.9512 18.7153 26.9316 20.7782C28.912 22.8411 31.598 24 34.3987 24C37.1994 24 39.8853 22.8411 41.8657 20.7782C43.8461 18.7153 44.9587 15.9174 44.9587 13ZM35.3587 14L35.3606 19.008C35.3606 19.2732 35.2594 19.5276 35.0794 19.7151C34.8994 19.9026 34.6552 20.008 34.4006 20.008C34.146 20.008 33.9018 19.9026 33.7218 19.7151C33.5417 19.5276 33.4406 19.2732 33.4406 19.008V14H28.631C28.3764 14 28.1322 13.8946 27.9522 13.7071C27.7721 13.5196 27.671 13.2652 27.671 13C27.671 12.7348 27.7721 12.4804 27.9522 12.2929C28.1322 12.1054 28.3764 12 28.631 12H33.4387V7C33.4387 6.73478 33.5398 6.48043 33.7198 6.29289C33.8999 6.10536 34.1441 6 34.3987 6C34.6533 6 34.8975 6.10536 35.0775 6.29289C35.2575 6.48043 35.3587 6.73478 35.3587 7V12H40.1529C40.4075 12 40.6517 12.1054 40.8317 12.2929C41.0118 12.4804 41.1129 12.7348 41.1129 13C41.1129 13.2652 41.0118 13.5196 40.8317 13.7071C40.6517 13.8946 40.4075 14 40.1529 14H35.3606H35.3587ZM34.3987 26C37.7568 26 40.8038 24.62 43.0463 22.372L43.0521 32.5C43.0524 33.0907 42.9409 33.6756 42.7242 34.2215C42.5074 34.7673 42.1895 35.2633 41.7887 35.6812C41.3879 36.099 40.9121 36.4306 40.3883 36.6568C39.8645 36.8831 39.303 36.9997 38.736 37H35.3587V39.5C35.3587 40.6935 34.9035 41.8381 34.0934 42.682C33.2832 43.5259 32.1844 44 31.0387 44H16.6387C15.4929 44 14.3941 43.5259 13.584 42.682C12.7738 41.8381 12.3187 40.6935 12.3187 39.5V36.998L8.95867 37C7.81294 37 6.71413 36.5259 5.90397 35.682C5.09381 34.8381 4.63867 33.6935 4.63867 32.5V20.508C4.63867 18.7841 5.2961 17.1308 6.46633 15.9118C7.63655 14.6928 9.22372 14.008 10.8787 14.008L12.3168 14.006L12.3187 12.5C12.3187 11.3065 12.7738 10.1619 13.584 9.31802C14.3941 8.47411 15.4929 8 16.6387 8H22.8748C22.49 8.96231 22.2186 9.96965 22.0665 11H16.6368C16.2548 11 15.8886 11.158 15.6185 11.4393C15.3485 11.7206 15.1968 12.1022 15.1968 12.5L15.1948 14.006H21.9532C22.1965 17.2704 23.6133 20.3189 25.9205 22.5424C28.2277 24.766 31.2555 26.0008 34.3987 26ZM32.4787 30.5C32.4787 30.1022 32.327 29.7206 32.0569 29.4393C31.7869 29.158 31.4206 29 31.0387 29H16.6387C16.2568 29 15.8905 29.158 15.6204 29.4393C15.3504 29.7206 15.1987 30.1022 15.1987 30.5V39.5C15.1987 40.328 15.8438 41 16.6387 41H31.0387C31.4206 41 31.7869 40.842 32.0569 40.5607C32.327 40.2794 32.4787 39.8978 32.4787 39.5V30.5Z" fill="#424242"/>
</svg>
