<svg width="35" height="60" viewBox="0 0 35 60" fill="none" xmlns="http://www.w3.org/2000/svg">
<g clip-path="url(#clip0_970_1079)">
<path d="M3.6 60C2.64522 60 1.72955 59.6207 1.05442 58.9456C0.379285 58.2705 0 57.3548 0 56.4L0 14.14C0 12.1525 1.6125 10.54 3.6 10.54H7.865C8 10.54 8.13 10.5725 8.2425 10.63L8.2375 10.6275V0.42C8.2375 0.1875 8.425 0 8.6575 0H23.7075C23.94 0 24.1275 0.1875 24.1275 0.42V10.5675C24.1929 10.5512 24.2601 10.5428 24.3275 10.5425H28.115C30.1025 10.5425 31.715 12.155 31.715 14.1425V24.22C31.8279 24.1649 31.9519 24.1367 32.0775 24.1375H33.97C34.435 24.1375 34.8125 24.515 34.8125 24.98V46.91C34.8125 47.1334 34.7237 47.3477 34.5657 47.5057C34.4077 47.6637 34.1934 47.7525 33.97 47.7525H32.0775C31.9501 47.7529 31.8243 47.7238 31.71 47.6675L31.715 47.67V56.4C31.715 57.3548 31.3357 58.2705 30.6606 58.9456C29.9855 59.6207 29.0698 60 28.115 60H3.6ZM21.91 51.9225V54.7575C21.9107 54.8694 21.9554 54.9764 22.0345 55.0555C22.1136 55.1346 22.2206 55.1793 22.3325 55.18H25.6675C25.7794 55.1793 25.8864 55.1346 25.9655 55.0555C26.0446 54.9764 26.0893 54.8694 26.09 54.7575V51.9225C26.0893 51.8109 26.0445 51.7041 25.9654 51.6254C25.8862 51.5467 25.7791 51.5025 25.6675 51.5025H22.3275C22.2161 51.5031 22.1094 51.5475 22.0303 51.6261C21.9513 51.7046 21.9063 51.8111 21.905 51.9225H21.91ZM14.02 51.9225V54.7575C14.0207 54.8694 14.0654 54.9764 14.1445 55.0555C14.2236 55.1346 14.3306 55.1793 14.4425 55.18H17.775C17.8869 55.1793 17.9939 55.1346 18.073 55.0555C18.1521 54.9764 18.1968 54.8694 18.1975 54.7575V51.9225C18.1968 51.8109 18.152 51.7041 18.0729 51.6254C17.9937 51.5467 17.8866 51.5025 17.775 51.5025H14.44C14.3286 51.5031 14.2219 51.5475 14.1428 51.6261C14.0638 51.7046 14.0188 51.8111 14.0175 51.9225H14.02ZM6.13 51.9225V54.76C6.13 54.9925 6.3175 55.18 6.55 55.18H9.885C9.99685 55.1793 10.1039 55.1346 10.183 55.0555C10.2621 54.9764 10.3068 54.8694 10.3075 54.7575V51.9225C10.3068 51.8109 10.262 51.7041 10.1829 51.6254C10.1037 51.5467 9.99662 51.5025 9.885 51.5025H6.55C6.43861 51.5025 6.33178 51.5467 6.25302 51.6255C6.17425 51.7043 6.13 51.8111 6.13 51.9225ZM21.9075 45.495V48.33C21.9082 48.4419 21.9529 48.5489 22.032 48.628C22.1111 48.7071 22.2181 48.7518 22.33 48.7525H25.665C25.7769 48.7518 25.8839 48.7071 25.963 48.628C26.0421 48.5489 26.0868 48.4419 26.0875 48.33V45.4925C26.0875 45.3811 26.0432 45.2743 25.9645 45.1955C25.8857 45.1167 25.7789 45.0725 25.6675 45.0725H22.325C22.2136 45.0725 22.1068 45.1167 22.028 45.1955C21.9492 45.2743 21.905 45.3811 21.905 45.4925V45.495H21.9075ZM14.0175 45.495V48.33C14.0182 48.4419 14.0629 48.5489 14.142 48.628C14.2211 48.7071 14.3281 48.7518 14.44 48.7525H17.775C17.8869 48.7518 17.9939 48.7071 18.073 48.628C18.1521 48.5489 18.1968 48.4419 18.1975 48.33V45.4925C18.1975 45.3811 18.1532 45.2743 18.0745 45.1955C17.9957 45.1167 17.8889 45.0725 17.7775 45.0725H14.4375C14.3261 45.0725 14.2193 45.1167 14.1405 45.1955C14.0618 45.2743 14.0175 45.3811 14.0175 45.4925V45.495ZM6.1275 45.495V48.3325C6.1275 48.565 6.315 48.7525 6.5475 48.7525H9.8825C9.99435 48.7518 10.1014 48.7071 10.1805 48.628C10.2596 48.5489 10.3043 48.4419 10.305 48.33V45.4925C10.305 45.3811 10.2607 45.2743 10.182 45.1955C10.1032 45.1167 9.99639 45.0725 9.885 45.0725H6.5475C6.43611 45.0725 6.32928 45.1167 6.25051 45.1955C6.17175 45.2743 6.1275 45.3811 6.1275 45.4925V45.495ZM21.905 39.065V41.9025C21.905 42.135 22.0925 42.3225 22.325 42.3225H25.665C25.7764 42.3225 25.8832 42.2782 25.962 42.1995C26.0408 42.1207 26.085 42.0139 26.085 41.9025V39.065C26.0843 38.9534 26.0395 38.8466 25.9604 38.7679C25.8812 38.6892 25.7741 38.645 25.6625 38.645H22.3275C22.2161 38.6456 22.1094 38.69 22.0303 38.7686C21.9513 38.8471 21.9063 38.9536 21.905 39.065ZM14.015 39.065V41.9025C14.015 42.135 14.2025 42.3225 14.435 42.3225H17.775C17.8864 42.3225 17.9932 42.2782 18.072 42.1995C18.1508 42.1207 18.195 42.0139 18.195 41.9025V39.065C18.1943 38.9534 18.1495 38.8466 18.0704 38.7679C17.9912 38.6892 17.8841 38.645 17.7725 38.645H14.4375C14.3261 38.6456 14.2194 38.69 14.1403 38.7686C14.0613 38.8471 14.0163 38.9536 14.015 39.065ZM6.125 39.065V41.9025C6.125 42.135 6.3125 42.3225 6.545 42.3225H9.885C9.99639 42.3225 10.1032 42.2782 10.182 42.1995C10.2607 42.1207 10.305 42.0139 10.305 41.9025V39.065C10.3043 38.9534 10.2595 38.8466 10.1804 38.7679C10.1012 38.6892 9.99412 38.645 9.8825 38.645H6.5475C6.43611 38.645 6.32928 38.6893 6.25051 38.768C6.17175 38.8468 6.1275 38.9536 6.1275 39.065H6.125ZM5.6 22.2825V34.5625C5.6 34.795 5.7875 34.9825 6.02 34.9825H25.425C25.5364 34.9825 25.6432 34.9383 25.722 34.8595C25.8007 34.7807 25.845 34.6739 25.845 34.5625V22.2825C25.8443 22.1706 25.7996 22.0636 25.7205 21.9845C25.6414 21.9054 25.5344 21.8607 25.4225 21.86H6.0225C5.91065 21.8607 5.80356 21.9054 5.72447 21.9845C5.64538 22.0636 5.60066 22.1706 5.6 22.2825ZM4.34 15.5775V18.5525C4.34 19.25 4.905 19.815 5.6025 19.815H26.6C26.9348 19.815 27.256 19.682 27.4927 19.4452C27.7295 19.2085 27.8625 18.8873 27.8625 18.5525V15.5775C27.8625 15.2427 27.7295 14.9215 27.4927 14.6848C27.256 14.448 26.9348 14.315 26.6 14.315H24.125V16.84H25.345V17.285H6.865V16.84H7.6675C7.87029 16.84 8.0701 16.7911 8.25 16.6975L8.2425 16.7V14.455C8.06409 14.3625 7.86597 14.3145 7.665 14.315H5.5975C5.2631 14.3157 4.94262 14.449 4.70639 14.6857C4.47017 14.9224 4.3375 15.2431 4.3375 15.5775H4.34Z" fill="#424242"/>
</g>
<defs>
<clipPath id="clip0_970_1079">
<rect width="35" height="60" fill="white"/>
</clipPath>
</defs>
</svg>
